<svg width="800" height="300" viewBox="0 0 600 300" xmlns="http://www.w3.org/2000/svg">
<line opacity="0.1" stroke="#000000" stroke-width="1" x1="173" y1="239" x2="173" y2="10"/>
<line opacity="0.1" stroke="#000000" stroke-width="1" x1="205" y1="239" x2="205" y2="10"/>
<line opacity="0.1" stroke="#000000" stroke-width="1" x1="223" y1="239" x2="223" y2="10"/>
<line opacity="0.1" stroke="#000000" stroke-width="1" x1="236" y1="239" x2="236" y2="10"/>
<line opacity="0.1" stroke="#000000" stroke-width="1" x1="246" y1="239" x2="246" y2="10"/>
<line opacity="0.1" stroke="#000000" stroke-width="1" x1="254" y1="239" x2="254" y2="10"/>
<line opacity="0.1" stroke="#000000" stroke-width="1" x1="261" y1="239" x2="261" y2="10"/>
<line opacity="0.1" stroke="#000000" stroke-width="1" x1="267" y1="239" x2="267" y2="10"/>
<line opacity="0.1" stroke="#000000" stroke-width="1" x1="272" y1="239" x2="272" y2="10"/>
<line opacity="0.1" stroke="#000000" stroke-width="1" x1="277" y1="239" x2="277" y2="10"/>
<line opacity="0.1" stroke="#000000" stroke-width="1" x1="277" y1="239" x2="277" y2="10"/>
<line opacity="0.1" stroke="#000000" stroke-width="1" x1="308" y1="239" x2="308" y2="10"/>
<line opacity="0.1" stroke="#000000" stroke-width="1" x1="327" y1="239" x2="327" y2="10"/>
<line opacity="0.1" stroke="#000000" stroke-width="1" x1="340" y1="239" x2="340" y2="10"/>
<line opacity="0.1" stroke="#000000" stroke-width="1" x1="350" y1="239" x2="350" y2="10"/>
<line opacity="0.1" stroke="#000000" stroke-width="1" x1="358" y1="239" x2="358" y2="10"/>
<line opacity="0.1" stroke="#000000" stroke-width="1" x1="365" y1="239" x2="365" y2="10"/>
<line opacity="0.1" stroke="#000000" stroke-width="1" x1="371" y1="239" x2="371" y2="10"/>
<line opacity="0.1" stroke="#000000" stroke-width="1" x1="376" y1="239" x2="376" y2="10"/>
<line opacity="0.1" stroke="#000000" stroke-width="1" x1="381" y1="239" x2="381" y2="10"/>
<line opacity="0.1" stroke="#000000" stroke-width="1" x1="381" y1="239" x2="381" y2="10"/>
<line opacity="0.1" stroke="#000000" stroke-width="1" x1="412" y1="239" x2="412" y2="10"/>
<line opacity="0.1" stroke="#000000" stroke-width="1" x1="430" y1="239" x2="430" y2="10"/>
<line opacity="0.1" stroke="#000000" stroke-width="1" x1="443" y1="239" x2="443" y2="10"/>
<line opacity="0.1" stroke="#000000" stroke-width="1" x1="453" y1="239" x2="453" y2="10"/>
<line opacity="0.1" stroke="#000000" stroke-width="1" x1="462" y1="239" x2="462" y2="10"/>
<line opacity="0.1" stroke="#000000" stroke-width="1" x1="469" y1="239" x2="469" y2="10"/>
<line opacity="0.1" stroke="#000000" stroke-width="1" x1="475" y1="239" x2="475" y2="10"/>
<line opacity="0.1" stroke="#000000" stroke-width="1" x1="480" y1="239" x2="480" y2="10"/>
<line opacity="0.1" stroke="#000000" stroke-width="1" x1="485" y1="239" x2="485" y2="10"/>
<line opacity="0.1" stroke="#000000" stroke-width="1" x1="485" y1="239" x2="485" y2="10"/>
<line opacity="0.1" stroke="#000000" stroke-width="1" x1="516" y1="239" x2="516" y2="10"/>
<line opacity="0.1" stroke="#000000" stroke-width="1" x1="534" y1="239" x2="534" y2="10"/>
<line opacity="0.1" stroke="#000000" stroke-width="1" x1="547" y1="239" x2="547" y2="10"/>
<line opacity="0.1" stroke="#000000" stroke-width="1" x1="557" y1="239" x2="557" y2="10"/>
<line opacity="0.1" stroke="#000000" stroke-width="1" x1="565" y1="239" x2="565" y2="10"/>
<line opacity="0.1" stroke="#000000" stroke-width="1" x1="572" y1="239" x2="572" y2="10"/>
<line opacity="0.1" stroke="#000000" stroke-width="1" x1="578" y1="239" x2="578" y2="10"/>
<line opacity="0.1" stroke="#000000" stroke-width="1" x1="584" y1="239" x2="584" y2="10"/>
<line opacity="0.1" stroke="#000000" stroke-width="1" x1="589" y1="239" x2="589" y2="10"/>
<line opacity="0.1" stroke="#000000" stroke-width="1" x1="589" y1="239" x2="589" y2="10"/>
<line opacity="0.1" stroke="#000000" stroke-width="1" x1="70" y1="239" x2="589" y2="239"/>
<line opacity="0.1" stroke="#000000" stroke-width="1" x1="70" y1="228" x2="589" y2="228"/>
<line opacity="0.1" stroke="#000000" stroke-width="1" x1="70" y1="217" x2="589" y2="217"/>
<line opacity="0.1" stroke="#000000" stroke-width="1" x1="70" y1="205" x2="589" y2="205"/>
<line opacity="0.1" stroke="#000000" stroke-width="1" x1="70" y1="194" x2="589" y2="194"/>
<line opacity="0.1" stroke="#000000" stroke-width="1" x1="70" y1="182" x2="589" y2="182"/>
<line opacity="0.1" stroke="#000000" stroke-width="1" x1="70" y1="171" x2="589" y2="171"/>
<line opacity="0.1" stroke="#000000" stroke-width="1" x1="70" y1="159" x2="589" y2="159"/>
<line opacity="0.1" stroke="#000000" stroke-width="1" x1="70" y1="148" x2="589" y2="148"/>
<line opacity="0.1" stroke="#000000" stroke-width="1" x1="70" y1="136" x2="589" y2="136"/>
<line opacity="0.1" stroke="#000000" stroke-width="1" x1="70" y1="125" x2="589" y2="125"/>
<line opacity="0.1" stroke="#000000" stroke-width="1" x1="70" y1="114" x2="589" y2="114"/>
<line opacity="0.1" stroke="#000000" stroke-width="1" x1="70" y1="102" x2="589" y2="102"/>
<line opacity="0.1" stroke="#000000" stroke-width="1" x1="70" y1="91" x2="589" y2="91"/>
<line opacity="0.1" stroke="#000000" stroke-width="1" x1="70" y1="79" x2="589" y2="79"/>
<line opacity="0.1" stroke="#000000" stroke-width="1" x1="70" y1="68" x2="589" y2="68"/>
<line opacity="0.1" stroke="#000000" stroke-width="1" x1="70" y1="56" x2="589" y2="56"/>
<line opacity="0.1" stroke="#000000" stroke-width="1" x1="70" y1="45" x2="589" y2="45"/>
<line opacity="0.1" stroke="#000000" stroke-width="1" x1="70" y1="33" x2="589" y2="33"/>
<line opacity="0.1" stroke="#000000" stroke-width="1" x1="70" y1="22" x2="589" y2="22"/>
<line opacity="0.1" stroke="#000000" stroke-width="1" x1="70" y1="10" x2="589" y2="10"/>
<text x="10" y="125" dy="0.76em" text-anchor="middle" font-family="Source Sans Pro - Regular" font-size="14.516129032258064" opacity="1" fill="#000000" transform="rotate(270, 10, 125)">
Output color
</text>
<text x="330" y="290" dy="-0.5ex" text-anchor="middle" font-family="Source Sans Pro - Regular" font-size="14.516129032258064" opacity="1" fill="#000000">
Input color
</text>
<line opacity="0.2" stroke="#000000" stroke-width="1" x1="173" y1="239" x2="173" y2="10"/>
<line opacity="0.2" stroke="#000000" stroke-width="1" x1="277" y1="239" x2="277" y2="10"/>
<line opacity="0.2" stroke="#000000" stroke-width="1" x1="381" y1="239" x2="381" y2="10"/>
<line opacity="0.2" stroke="#000000" stroke-width="1" x1="485" y1="239" x2="485" y2="10"/>
<line opacity="0.2" stroke="#000000" stroke-width="1" x1="589" y1="239" x2="589" y2="10"/>
<line opacity="0.2" stroke="#000000" stroke-width="1" x1="70" y1="239" x2="589" y2="239"/>
<line opacity="0.2" stroke="#000000" stroke-width="1" x1="70" y1="125" x2="589" y2="125"/>
<line opacity="0.2" stroke="#000000" stroke-width="1" x1="70" y1="10" x2="589" y2="10"/>
<polyline fill="none" opacity="1" stroke="#000000" stroke-width="1" points="69,10 69,239 "/>
<text x="60" y="239" dy="0.5ex" text-anchor="end" font-family="Source Sans Pro - Regular" font-size="14.516129032258064" opacity="1" fill="#000000">
0.00
</text>
<polyline fill="none" opacity="1" stroke="#000000" stroke-width="1" points="64,239 69,239 "/>
<text x="60" y="125" dy="0.5ex" text-anchor="end" font-family="Source Sans Pro - Regular" font-size="14.516129032258064" opacity="1" fill="#000000">
0.50
</text>
<polyline fill="none" opacity="1" stroke="#000000" stroke-width="1" points="64,125 69,125 "/>
<text x="60" y="10" dy="0.5ex" text-anchor="end" font-family="Source Sans Pro - Regular" font-size="14.516129032258064" opacity="1" fill="#000000">
1.00
</text>
<polyline fill="none" opacity="1" stroke="#000000" stroke-width="1" points="64,10 69,10 "/>
<polyline fill="none" opacity="1" stroke="#000000" stroke-width="1" points="70,240 589,240 "/>
<text x="173" y="250" dy="0.76em" text-anchor="middle" font-family="Source Sans Pro - Regular" font-size="14.516129032258064" opacity="1" fill="#000000">
0.001
</text>
<polyline fill="none" opacity="1" stroke="#000000" stroke-width="1" points="173,240 173,245 "/>
<text x="277" y="250" dy="0.76em" text-anchor="middle" font-family="Source Sans Pro - Regular" font-size="14.516129032258064" opacity="1" fill="#000000">
0.01
</text>
<polyline fill="none" opacity="1" stroke="#000000" stroke-width="1" points="277,240 277,245 "/>
<text x="381" y="250" dy="0.76em" text-anchor="middle" font-family="Source Sans Pro - Regular" font-size="14.516129032258064" opacity="1" fill="#000000">
0.1
</text>
<polyline fill="none" opacity="1" stroke="#000000" stroke-width="1" points="381,240 381,245 "/>
<text x="485" y="250" dy="0.76em" text-anchor="middle" font-family="Source Sans Pro - Regular" font-size="14.516129032258064" opacity="1" fill="#000000">
1.0
</text>
<polyline fill="none" opacity="1" stroke="#000000" stroke-width="1" points="485,240 485,245 "/>
<text x="589" y="250" dy="0.76em" text-anchor="middle" font-family="Source Sans Pro - Regular" font-size="14.516129032258064" opacity="1" fill="#000000">
10.0
</text>
<polyline fill="none" opacity="1" stroke="#000000" stroke-width="1" points="589,240 589,245 "/>
<polyline fill="none" opacity="1" stroke="#000000" stroke-width="1" points="70,239 205,239 236,239 254,238 267,238 277,237 285,237 292,236 298,236 304,235 308,235 313,234 317,234 320,234 324,233 327,233 330,232 332,232 335,231 337,231 340,230 342,230 344,229 346,229 348,229 350,228 351,228 353,227 355,227 356,226 358,226 359,225 361,225 362,224 364,224 365,223 366,223 367,223 369,222 370,222 371,221 372,221 373,220 374,220 375,219 376,219 377,218 378,218 379,218 380,217 381,217 382,216 383,216 384,215 384,215 385,214 386,214 387,213 388,213 388,212 389,212 390,212 391,211 391,211 392,210 393,210 393,209 394,209 395,208 395,208 396,207 397,207 397,207 398,206 399,206 399,205 400,205 400,204 401,204 402,203 402,203 403,202 403,202 404,201 404,201 405,201 405,200 406,200 406,199 407,199 407,198 408,198 408,197 409,197 409,196 410,196 410,196 411,195 411,195 412,194 412,194 413,193 413,193 413,192 414,192 414,191 415,191 415,190 416,190 416,190 416,189 417,189 417,188 418,188 418,187 418,187 419,186 419,186 420,185 420,185 420,185 421,184 421,184 421,183 422,183 422,182 423,182 423,181 423,181 424,180 424,180 424,180 425,179 425,179 425,178 426,178 426,177 426,177 427,176 427,176 427,175 428,175 428,174 428,174 429,174 429,173 429,173 430,172 430,172 430,171 430,171 431,170 431,170 431,169 432,169 432,169 432,168 432,168 433,167 433,167 433,166 434,166 434,165 434,165 434,164 435,164 435,163 435,163 436,163 436,162 436,162 436,161 437,161 437,160 437,160 437,159 438,159 438,158 438,158 438,158 439,157 439,157 439,156 439,156 440,155 440,155 440,154 440,154 441,153 441,153 441,152 441,152 442,152 442,151 442,151 442,150 442,150 443,149 443,149 443,148 443,148 444,147 444,147 444,147 444,146 445,146 445,145 445,145 445,144 445,144 446,143 446,143 446,142 446,142 446,141 447,141 447,141 447,140 447,140 447,139 448,139 448,138 448,138 448,137 449,137 449,136 449,136 449,136 449,135 449,135 450,134 450,134 450,133 450,133 450,132 451,132 451,131 451,131 451,130 451,130 452,130 452,129 452,129 452,128 452,128 453,127 453,127 453,126 453,126 453,125 453,125 454,125 454,124 454,124 454,123 454,123 455,122 455,122 455,121 455,121 455,120 455,120 456,120 456,119 456,119 456,118 456,118 456,117 457,117 457,116 457,116 457,115 457,115 457,114 458,114 458,114 458,113 458,113 458,112 458,112 459,111 459,111 459,110 459,110 459,109 459,109 460,109 460,108 460,108 460,107 460,107 460,106 460,106 461,105 461,105 461,104 461,104 461,103 461,103 462,103 462,102 462,102 462,101 462,101 462,100 462,100 463,99 463,99 463,98 463,98 463,98 463,97 463,97 464,96 464,96 464,95 464,95 464,94 464,94 464,93 465,93 465,92 465,92 465,92 465,91 465,91 465,90 466,90 466,89 466,89 466,88 466,88 466,87 466,87 467,87 467,86 467,86 467,85 467,85 467,84 467,84 467,83 468,83 468,82 468,82 468,81 468,81 468,81 468,80 468,80 469,79 469,79 469,78 469,78 469,77 469,77 469,76 470,76 470,76 470,75 470,75 470,74 470,74 470,73 470,73 471,72 471,72 471,71 471,71 471,70 471,70 471,70 471,69 471,69 472,68 472,68 472,67 472,67 472,66 472,66 472,65 472,65 473,65 473,64 473,64 473,63 473,63 473,62 473,62 473,61 474,61 474,60 474,60 474,60 474,59 474,59 474,58 474,58 474,57 475,57 475,56 475,56 475,55 475,55 475,54 475,54 475,54 475,53 476,53 476,52 476,52 476,51 476,51 476,50 476,50 476,49 476,49 477,49 477,48 477,48 477,47 477,47 477,46 477,46 477,45 477,45 477,44 478,44 478,43 478,43 478,43 478,42 478,42 478,41 478,41 478,40 479,40 479,39 479,39 479,38 479,38 479,38 479,37 479,37 479,36 479,36 480,35 480,35 480,34 480,34 480,33 480,33 480,32 480,32 480,32 480,31 481,31 481,30 481,30 481,29 481,29 481,28 481,28 481,27 481,27 481,27 482,26 482,26 482,25 482,25 482,24 482,24 482,23 482,23 482,22 482,22 482,21 483,21 483,21 483,20 483,20 483,19 483,19 483,18 483,18 483,17 483,17 484,16 484,16 484,16 484,15 484,15 484,14 484,14 484,13 484,13 484,12 484,12 485,11 485,11 485,10 485,10 485,10 485,10 485,10 485,10 485,10 485,10 485,10 486,10 486,10 486,10 486,10 486,10 486,10 486,10 486,10 486,10 486,10 486,10 486,10 487,10 487,10 487,10 487,10 487,10 487,10 487,10 487,10 487,10 487,10 487,10 487,10 488,10 488,10 488,10 488,10 488,10 488,10 488,10 488,10 488,10 488,10 488,10 489,10 489,10 489,10 489,10 489,10 489,10 489,10 489,10 489,10 489,10 489,10 489,10 489,10 490,10 490,10 490,10 490,10 490,10 490,10 490,10 490,10 490,10 490,10 490,10 490,10 491,10 491,10 491,10 491,10 491,10 491,10 491,10 491,10 491,10 491,10 491,10 491,10 491,10 492,10 492,10 492,10 492,10 492,10 492,10 492,10 492,10 492,10 492,10 492,10 492,10 492,10 493,10 493,10 493,10 493,10 493,10 493,10 493,10 493,10 493,10 493,10 493,10 493,10 493,10 494,10 494,10 494,10 494,10 494,10 494,10 494,10 494,10 494,10 494,10 494,10 494,10 494,10 494,10 495,10 495,10 495,10 495,10 495,10 495,10 495,10 495,10 495,10 495,10 495,10 495,10 495,10 495,10 496,10 496,10 496,10 496,10 496,10 496,10 496,10 496,10 496,10 496,10 496,10 496,10 496,10 496,10 497,10 497,10 497,10 497,10 497,10 497,10 497,10 497,10 497,10 497,10 497,10 497,10 497,10 497,10 497,10 498,10 498,10 498,10 498,10 498,10 498,10 498,10 498,10 498,10 498,10 498,10 498,10 498,10 498,10 498,10 499,10 499,10 499,10 499,10 499,10 499,10 499,10 499,10 499,10 499,10 499,10 499,10 499,10 499,10 499,10 500,10 500,10 500,10 500,10 500,10 500,10 500,10 500,10 500,10 500,10 500,10 500,10 500,10 500,10 500,10 501,10 501,10 501,10 501,10 501,10 501,10 501,10 501,10 501,10 501,10 501,10 501,10 501,10 501,10 501,10 501,10 502,10 502,10 502,10 502,10 502,10 502,10 502,10 502,10 502,10 502,10 502,10 502,10 502,10 502,10 502,10 502,10 502,10 503,10 503,10 503,10 503,10 503,10 503,10 503,10 503,10 503,10 503,10 503,10 503,10 503,10 503,10 503,10 503,10 504,10 504,10 504,10 504,10 504,10 504,10 504,10 504,10 504,10 504,10 504,10 504,10 504,10 504,10 504,10 504,10 504,10 505,10 505,10 505,10 505,10 505,10 505,10 505,10 505,10 505,10 505,10 505,10 505,10 505,10 505,10 505,10 505,10 505,10 505,10 506,10 506,10 506,10 506,10 506,10 506,10 506,10 506,10 506,10 506,10 506,10 506,10 506,10 506,10 506,10 506,10 506,10 507,10 507,10 507,10 507,10 507,10 507,10 507,10 507,10 507,10 507,10 507,10 507,10 507,10 507,10 507,10 507,10 507,10 507,10 507,10 508,10 508,10 508,10 508,10 508,10 508,10 508,10 508,10 508,10 508,10 508,10 508,10 508,10 508,10 508,10 508,10 508,10 508,10 509,10 509,10 509,10 509,10 509,10 509,10 509,10 509,10 509,10 509,10 509,10 509,10 509,10 509,10 509,10 509,10 509,10 509,10 509,10 510,10 510,10 510,10 510,10 510,10 510,10 510,10 510,10 510,10 510,10 510,10 510,10 510,10 510,10 510,10 510,10 510,10 510,10 510,10 510,10 511,10 511,10 511,10 511,10 511,10 511,10 511,10 511,10 511,10 511,10 511,10 511,10 511,10 511,10 511,10 511,10 511,10 511,10 511,10 511,10 512,10 512,10 512,10 512,10 512,10 512,10 512,10 512,10 512,10 512,10 512,10 512,10 512,10 512,10 512,10 512,10 512,10 512,10 512,10 512,10 513,10 513,10 513,10 513,10 513,10 513,10 513,10 513,10 513,10 513,10 513,10 513,10 513,10 513,10 513,10 513,10 513,10 513,10 513,10 513,10 513,10 514,10 514,10 514,10 514,10 514,10 514,10 514,10 514,10 514,10 514,10 514,10 514,10 514,10 514,10 514,10 514,10 514,10 514,10 514,10 514,10 514,10 515,10 515,10 515,10 515,10 515,10 515,10 515,10 515,10 515,10 515,10 515,10 515,10 515,10 515,10 515,10 515,10 515,10 515,10 515,10 515,10 515,10 515,10 516,10 516,10 516,10 516,10 516,10 516,10 516,10 516,10 516,10 516,10 516,10 516,10 516,10 516,10 516,10 516,10 516,10 516,10 516,10 516,10 516,10 516,10 517,10 517,10 517,10 517,10 517,10 517,10 517,10 517,10 517,10 517,10 517,10 517,10 517,10 517,10 517,10 517,10 517,10 517,10 517,10 517,10 517,10 517,10 517,10 518,10 518,10 518,10 518,10 518,10 518,10 518,10 518,10 518,10 518,10 518,10 518,10 518,10 518,10 518,10 518,10 518,10 518,10 518,10 518,10 518,10 518,10 518,10 519,10 519,10 519,10 519,10 519,10 519,10 519,10 519,10 519,10 519,10 519,10 519,10 519,10 519,10 519,10 519,10 519,10 519,10 519,10 519,10 519,10 519,10 519,10 520,10 520,10 520,10 520,10 520,10 520,10 520,10 520,10 520,10 520,10 520,10 520,10 520,10 520,10 520,10 520,10 520,10 520,10 520,10 520,10 520,10 520,10 520,10 520,10 520,10 521,10 521,10 521,10 521,10 521,10 521,10 521,10 521,10 521,10 521,10 521,10 521,10 521,10 521,10 521,10 521,10 521,10 521,10 521,10 521,10 521,10 521,10 521,10 521,10 521,10 522,10 522,10 522,10 522,10 522,10 522,10 522,10 522,10 522,10 522,10 522,10 522,10 522,10 522,10 522,10 522,10 522,10 522,10 522,10 522,10 522,10 522,10 522,10 522,10 522,10 523,10 523,10 523,10 523,10 523,10 523,10 523,10 523,10 523,10 523,10 523,10 523,10 523,10 523,10 523,10 523,10 523,10 523,10 523,10 523,10 523,10 523,10 523,10 523,10 523,10 523,10 524,10 524,10 524,10 524,10 524,10 524,10 524,10 524,10 524,10 524,10 524,10 524,10 524,10 524,10 524,10 524,10 524,10 524,10 524,10 524,10 524,10 524,10 524,10 524,10 524,10 524,10 525,10 525,10 525,10 525,10 525,10 525,10 525,10 525,10 525,10 525,10 525,10 525,10 525,10 525,10 525,10 525,10 525,10 525,10 525,10 525,10 525,10 525,10 525,10 525,10 525,10 525,10 525,10 525,10 526,10 526,10 526,10 526,10 526,10 526,10 526,10 526,10 526,10 526,10 526,10 526,10 526,10 526,10 526,10 526,10 526,10 526,10 526,10 526,10 526,10 526,10 526,10 526,10 526,10 526,10 526,10 527,10 527,10 527,10 527,10 527,10 527,10 527,10 527,10 527,10 527,10 527,10 527,10 527,10 527,10 527,10 527,10 527,10 527,10 527,10 527,10 527,10 527,10 527,10 527,10 527,10 527,10 527,10 527,10 527,10 528,10 528,10 528,10 528,10 528,10 528,10 528,10 528,10 528,10 528,10 528,10 528,10 528,10 528,10 528,10 528,10 528,10 528,10 528,10 528,10 528,10 528,10 528,10 528,10 528,10 528,10 528,10 528,10 528,10 529,10 529,10 529,10 529,10 529,10 529,10 529,10 529,10 529,10 529,10 529,10 529,10 529,10 529,10 529,10 529,10 529,10 529,10 529,10 529,10 529,10 529,10 529,10 529,10 529,10 529,10 529,10 529,10 529,10 530,10 530,10 530,10 530,10 530,10 530,10 530,10 530,10 530,10 530,10 530,10 530,10 530,10 530,10 530,10 530,10 530,10 530,10 530,10 530,10 530,10 530,10 530,10 530,10 530,10 530,10 530,10 530,10 530,10 530,10 531,10 531,10 531,10 531,10 531,10 531,10 531,10 531,10 531,10 531,10 531,10 531,10 531,10 531,10 531,10 531,10 531,10 531,10 531,10 531,10 531,10 531,10 531,10 531,10 531,10 531,10 531,10 531,10 531,10 531,10 531,10 532,10 532,10 532,10 532,10 532,10 532,10 532,10 532,10 532,10 532,10 532,10 532,10 532,10 532,10 532,10 532,10 532,10 532,10 532,10 532,10 532,10 532,10 532,10 532,10 532,10 532,10 532,10 532,10 532,10 532,10 532,10 532,10 533,10 533,10 533,10 533,10 533,10 533,10 533,10 533,10 533,10 533,10 533,10 533,10 533,10 533,10 533,10 533,10 533,10 533,10 533,10 533,10 533,10 533,10 533,10 533,10 533,10 533,10 533,10 533,10 533,10 533,10 533,10 533,10 533,10 534,10 534,10 534,10 534,10 534,10 534,10 534,10 534,10 534,10 534,10 534,10 534,10 534,10 534,10 534,10 534,10 534,10 534,10 534,10 534,10 534,10 534,10 534,10 534,10 534,10 534,10 534,10 534,10 534,10 534,10 534,10 534,10 534,10 535,10 535,10 535,10 535,10 535,10 535,10 535,10 535,10 535,10 535,10 535,10 535,10 535,10 535,10 535,10 535,10 535,10 535,10 535,10 535,10 535,10 535,10 535,10 535,10 535,10 535,10 535,10 535,10 535,10 535,10 535,10 535,10 535,10 536,10 536,10 536,10 536,10 536,10 536,10 536,10 536,10 536,10 536,10 536,10 536,10 536,10 536,10 536,10 536,10 536,10 536,10 536,10 536,10 536,10 536,10 536,10 536,10 536,10 536,10 536,10 536,10 536,10 536,10 536,10 536,10 536,10 536,10 536,10 537,10 537,10 537,10 537,10 537,10 537,10 537,10 537,10 537,10 537,10 537,10 537,10 537,10 537,10 537,10 537,10 537,10 537,10 537,10 537,10 537,10 537,10 537,10 537,10 537,10 537,10 537,10 537,10 537,10 537,10 537,10 537,10 537,10 537,10 537,10 538,10 538,10 538,10 538,10 538,10 538,10 538,10 538,10 538,10 538,10 538,10 538,10 538,10 538,10 538,10 538,10 538,10 538,10 538,10 538,10 538,10 538,10 538,10 538,10 538,10 538,10 538,10 538,10 538,10 538,10 538,10 538,10 538,10 538,10 538,10 538,10 538,10 539,10 539,10 539,10 539,10 539,10 539,10 539,10 539,10 539,10 539,10 539,10 539,10 539,10 539,10 539,10 539,10 539,10 539,10 539,10 539,10 539,10 539,10 539,10 539,10 539,10 539,10 539,10 539,10 539,10 539,10 539,10 539,10 539,10 539,10 539,10 539,10 539,10 540,10 540,10 540,10 540,10 540,10 540,10 540,10 540,10 540,10 540,10 540,10 540,10 540,10 540,10 540,10 540,10 540,10 540,10 540,10 540,10 540,10 540,10 540,10 540,10 540,10 540,10 540,10 540,10 540,10 540,10 540,10 540,10 540,10 540,10 540,10 540,10 540,10 541,10 541,10 541,10 541,10 541,10 541,10 541,10 541,10 541,10 541,10 541,10 541,10 541,10 541,10 541,10 541,10 541,10 541,10 541,10 541,10 541,10 541,10 541,10 541,10 541,10 541,10 541,10 541,10 541,10 541,10 541,10 541,10 541,10 541,10 541,10 541,10 541,10 541,10 541,10 542,10 542,10 542,10 542,10 542,10 542,10 542,10 542,10 542,10 542,10 542,10 542,10 542,10 542,10 542,10 542,10 542,10 542,10 542,10 542,10 542,10 542,10 542,10 542,10 542,10 542,10 542,10 542,10 542,10 542,10 542,10 542,10 542,10 542,10 542,10 542,10 542,10 542,10 542,10 542,10 543,10 543,10 543,10 543,10 543,10 543,10 543,10 543,10 543,10 543,10 543,10 543,10 543,10 543,10 543,10 543,10 543,10 543,10 543,10 543,10 543,10 543,10 543,10 543,10 543,10 543,10 543,10 543,10 543,10 543,10 543,10 543,10 543,10 543,10 543,10 543,10 543,10 543,10 543,10 543,10 544,10 544,10 544,10 544,10 544,10 544,10 544,10 544,10 544,10 544,10 544,10 544,10 544,10 544,10 544,10 544,10 544,10 544,10 544,10 544,10 544,10 544,10 544,10 544,10 544,10 544,10 544,10 544,10 544,10 544,10 544,10 544,10 544,10 544,10 544,10 544,10 544,10 544,10 544,10 544,10 544,10 545,10 545,10 545,10 545,10 545,10 545,10 545,10 545,10 545,10 545,10 545,10 545,10 545,10 545,10 545,10 545,10 545,10 545,10 545,10 545,10 545,10 545,10 545,10 545,10 545,10 545,10 545,10 545,10 545,10 545,10 545,10 545,10 545,10 545,10 545,10 545,10 545,10 545,10 545,10 545,10 545,10 545,10 545,10 546,10 546,10 546,10 546,10 546,10 546,10 546,10 546,10 546,10 546,10 546,10 546,10 546,10 546,10 546,10 546,10 546,10 546,10 546,10 546,10 546,10 546,10 546,10 546,10 546,10 546,10 546,10 546,10 546,10 546,10 546,10 546,10 546,10 546,10 546,10 546,10 546,10 546,10 546,10 546,10 546,10 546,10 546,10 547,10 547,10 547,10 547,10 547,10 547,10 547,10 547,10 547,10 547,10 547,10 547,10 547,10 547,10 547,10 547,10 547,10 547,10 547,10 547,10 547,10 547,10 547,10 547,10 547,10 547,10 547,10 547,10 547,10 547,10 547,10 547,10 547,10 547,10 547,10 547,10 547,10 547,10 547,10 547,10 547,10 547,10 547,10 547,10 548,10 548,10 548,10 548,10 548,10 548,10 548,10 548,10 548,10 548,10 548,10 548,10 548,10 548,10 548,10 548,10 548,10 548,10 548,10 548,10 548,10 548,10 548,10 548,10 548,10 548,10 548,10 548,10 548,10 548,10 548,10 548,10 548,10 548,10 548,10 548,10 548,10 548,10 548,10 548,10 548,10 548,10 548,10 548,10 548,10 549,10 549,10 549,10 549,10 549,10 549,10 549,10 549,10 549,10 549,10 549,10 549,10 549,10 549,10 549,10 549,10 549,10 549,10 549,10 549,10 549,10 549,10 549,10 549,10 549,10 549,10 549,10 549,10 549,10 549,10 549,10 549,10 549,10 549,10 549,10 549,10 549,10 549,10 549,10 549,10 549,10 549,10 549,10 549,10 549,10 549,10 550,10 550,10 550,10 550,10 550,10 550,10 550,10 550,10 550,10 550,10 550,10 550,10 550,10 550,10 550,10 550,10 550,10 550,10 550,10 550,10 550,10 550,10 550,10 550,10 550,10 550,10 550,10 550,10 550,10 550,10 550,10 550,10 550,10 550,10 550,10 550,10 550,10 550,10 550,10 550,10 550,10 550,10 550,10 550,10 550,10 550,10 550,10 550,10 551,10 551,10 551,10 551,10 551,10 551,10 551,10 551,10 551,10 551,10 551,10 551,10 551,10 551,10 551,10 551,10 551,10 551,10 551,10 551,10 551,10 551,10 551,10 551,10 551,10 551,10 551,10 551,10 551,10 551,10 551,10 551,10 551,10 551,10 551,10 551,10 551,10 551,10 551,10 551,10 551,10 551,10 551,10 551,10 551,10 551,10 551,10 551,10 552,10 552,10 552,10 552,10 552,10 552,10 552,10 552,10 552,10 552,10 552,10 552,10 552,10 552,10 552,10 552,10 552,10 552,10 552,10 552,10 552,10 552,10 552,10 552,10 552,10 552,10 552,10 552,10 552,10 552,10 552,10 552,10 552,10 552,10 552,10 552,10 552,10 552,10 552,10 552,10 552,10 552,10 552,10 552,10 552,10 552,10 552,10 552,10 552,10 553,10 553,10 553,10 553,10 553,10 553,10 553,10 553,10 553,10 553,10 553,10 553,10 553,10 553,10 553,10 553,10 553,10 553,10 553,10 553,10 553,10 553,10 553,10 553,10 553,10 553,10 553,10 553,10 553,10 553,10 553,10 553,10 553,10 553,10 553,10 553,10 553,10 553,10 553,10 553,10 553,10 553,10 553,10 553,10 553,10 553,10 553,10 553,10 553,10 553,10 553,10 554,10 554,10 554,10 554,10 554,10 554,10 554,10 554,10 554,10 554,10 554,10 554,10 554,10 554,10 554,10 554,10 554,10 554,10 554,10 554,10 554,10 554,10 554,10 554,10 554,10 554,10 554,10 554,10 554,10 554,10 554,10 554,10 554,10 554,10 554,10 554,10 554,10 554,10 554,10 554,10 554,10 554,10 554,10 554,10 554,10 554,10 554,10 554,10 554,10 554,10 554,10 555,10 555,10 555,10 555,10 555,10 555,10 555,10 555,10 555,10 555,10 555,10 555,10 555,10 555,10 555,10 555,10 555,10 555,10 555,10 555,10 555,10 555,10 555,10 555,10 555,10 555,10 555,10 555,10 555,10 555,10 555,10 555,10 555,10 555,10 555,10 555,10 555,10 555,10 555,10 555,10 555,10 555,10 555,10 555,10 555,10 555,10 555,10 555,10 555,10 555,10 555,10 555,10 555,10 556,10 556,10 556,10 556,10 556,10 556,10 556,10 556,10 556,10 556,10 556,10 556,10 556,10 556,10 556,10 556,10 556,10 556,10 556,10 556,10 556,10 556,10 556,10 556,10 556,10 556,10 556,10 556,10 556,10 556,10 556,10 556,10 556,10 556,10 556,10 556,10 556,10 556,10 556,10 556,10 556,10 556,10 556,10 556,10 556,10 556,10 556,10 556,10 556,10 556,10 556,10 556,10 556,10 556,10 557,10 557,10 557,10 557,10 557,10 557,10 557,10 557,10 557,10 557,10 557,10 557,10 557,10 557,10 557,10 557,10 557,10 557,10 557,10 557,10 557,10 557,10 557,10 557,10 557,10 557,10 557,10 557,10 557,10 557,10 557,10 557,10 557,10 557,10 557,10 557,10 557,10 557,10 557,10 557,10 557,10 557,10 557,10 557,10 557,10 557,10 557,10 557,10 557,10 557,10 557,10 557,10 557,10 557,10 557,10 558,10 558,10 558,10 558,10 558,10 558,10 558,10 558,10 558,10 558,10 558,10 558,10 558,10 558,10 558,10 558,10 558,10 558,10 558,10 558,10 558,10 558,10 558,10 558,10 558,10 558,10 558,10 558,10 558,10 558,10 558,10 558,10 558,10 558,10 558,10 558,10 558,10 558,10 558,10 558,10 558,10 558,10 558,10 558,10 558,10 558,10 558,10 558,10 558,10 558,10 558,10 558,10 558,10 558,10 558,10 558,10 558,10 559,10 559,10 559,10 559,10 559,10 559,10 559,10 559,10 559,10 559,10 559,10 559,10 559,10 559,10 559,10 559,10 559,10 559,10 559,10 559,10 559,10 559,10 559,10 559,10 559,10 559,10 559,10 559,10 559,10 559,10 559,10 559,10 559,10 559,10 559,10 559,10 559,10 559,10 559,10 559,10 559,10 559,10 559,10 559,10 559,10 559,10 559,10 559,10 559,10 559,10 559,10 559,10 559,10 559,10 559,10 559,10 559,10 560,10 560,10 560,10 560,10 560,10 560,10 560,10 560,10 560,10 560,10 560,10 560,10 560,10 560,10 560,10 560,10 560,10 560,10 560,10 560,10 560,10 560,10 560,10 560,10 560,10 560,10 560,10 560,10 560,10 560,10 560,10 560,10 560,10 560,10 560,10 560,10 560,10 560,10 560,10 560,10 560,10 560,10 560,10 560,10 560,10 560,10 560,10 560,10 560,10 560,10 560,10 560,10 560,10 560,10 560,10 560,10 560,10 560,10 560,10 561,10 561,10 561,10 561,10 561,10 561,10 561,10 561,10 561,10 561,10 561,10 561,10 561,10 561,10 561,10 561,10 561,10 561,10 561,10 561,10 561,10 561,10 561,10 561,10 561,10 561,10 561,10 561,10 561,10 561,10 561,10 561,10 561,10 561,10 561,10 561,10 561,10 561,10 561,10 561,10 561,10 561,10 561,10 561,10 561,10 561,10 561,10 561,10 561,10 561,10 561,10 561,10 561,10 561,10 561,10 561,10 561,10 561,10 561,10 561,10 562,10 562,10 562,10 562,10 562,10 562,10 562,10 562,10 562,10 562,10 562,10 562,10 562,10 562,10 562,10 562,10 562,10 562,10 562,10 562,10 562,10 562,10 562,10 562,10 562,10 562,10 562,10 562,10 562,10 562,10 562,10 562,10 562,10 562,10 562,10 562,10 562,10 562,10 562,10 562,10 562,10 562,10 562,10 562,10 562,10 562,10 562,10 562,10 562,10 562,10 562,10 562,10 562,10 562,10 562,10 562,10 562,10 562,10 562,10 562,10 562,10 562,10 563,10 563,10 563,10 563,10 563,10 563,10 563,10 563,10 563,10 563,10 563,10 563,10 563,10 563,10 563,10 563,10 563,10 563,10 563,10 563,10 563,10 563,10 563,10 563,10 563,10 563,10 563,10 563,10 563,10 563,10 563,10 563,10 563,10 563,10 563,10 563,10 563,10 563,10 563,10 563,10 563,10 563,10 563,10 563,10 563,10 563,10 563,10 563,10 563,10 563,10 563,10 563,10 563,10 563,10 563,10 563,10 563,10 563,10 563,10 563,10 563,10 563,10 563,10 564,10 564,10 564,10 564,10 564,10 564,10 564,10 564,10 564,10 564,10 564,10 564,10 564,10 564,10 564,10 564,10 564,10 564,10 564,10 564,10 564,10 564,10 564,10 564,10 564,10 564,10 564,10 564,10 564,10 564,10 564,10 564,10 564,10 564,10 564,10 564,10 564,10 564,10 564,10 564,10 564,10 564,10 564,10 564,10 564,10 564,10 564,10 564,10 564,10 564,10 564,10 564,10 564,10 564,10 564,10 564,10 564,10 564,10 564,10 564,10 564,10 564,10 564,10 564,10 565,10 565,10 565,10 565,10 565,10 565,10 565,10 565,10 565,10 565,10 565,10 565,10 565,10 565,10 565,10 565,10 565,10 565,10 565,10 565,10 565,10 565,10 565,10 565,10 565,10 565,10 565,10 565,10 565,10 565,10 565,10 565,10 565,10 565,10 565,10 565,10 565,10 565,10 565,10 565,10 565,10 565,10 565,10 565,10 565,10 565,10 565,10 565,10 565,10 565,10 565,10 565,10 565,10 565,10 565,10 565,10 565,10 565,10 565,10 565,10 565,10 565,10 565,10 565,10 565,10 565,10 566,10 566,10 566,10 566,10 566,10 566,10 566,10 566,10 566,10 566,10 566,10 566,10 566,10 566,10 566,10 566,10 566,10 566,10 566,10 566,10 566,10 566,10 566,10 566,10 566,10 566,10 566,10 566,10 566,10 566,10 566,10 566,10 566,10 566,10 566,10 566,10 566,10 566,10 566,10 566,10 566,10 566,10 566,10 566,10 566,10 566,10 566,10 566,10 566,10 566,10 566,10 566,10 566,10 566,10 566,10 566,10 566,10 566,10 566,10 566,10 566,10 566,10 566,10 566,10 566,10 566,10 566,10 566,10 567,10 567,10 567,10 567,10 567,10 567,10 567,10 567,10 567,10 567,10 567,10 567,10 567,10 567,10 567,10 567,10 567,10 567,10 567,10 567,10 567,10 567,10 567,10 567,10 567,10 567,10 567,10 567,10 567,10 567,10 567,10 567,10 567,10 567,10 567,10 567,10 567,10 567,10 567,10 567,10 567,10 567,10 567,10 567,10 567,10 567,10 567,10 567,10 567,10 567,10 567,10 567,10 567,10 567,10 567,10 567,10 567,10 567,10 567,10 567,10 567,10 567,10 567,10 567,10 567,10 567,10 567,10 567,10 568,10 568,10 568,10 568,10 568,10 568,10 568,10 568,10 568,10 568,10 568,10 568,10 568,10 568,10 568,10 568,10 568,10 568,10 568,10 568,10 568,10 568,10 568,10 568,10 568,10 568,10 568,10 568,10 568,10 568,10 568,10 568,10 568,10 568,10 568,10 568,10 568,10 568,10 568,10 568,10 568,10 568,10 568,10 568,10 568,10 568,10 568,10 568,10 568,10 568,10 568,10 568,10 568,10 568,10 568,10 568,10 568,10 568,10 568,10 568,10 568,10 568,10 568,10 568,10 568,10 568,10 568,10 568,10 568,10 568,10 568,10 569,10 569,10 569,10 569,10 569,10 569,10 569,10 569,10 569,10 569,10 569,10 569,10 569,10 569,10 569,10 569,10 569,10 569,10 569,10 569,10 569,10 569,10 569,10 569,10 569,10 569,10 569,10 569,10 569,10 569,10 569,10 569,10 569,10 569,10 569,10 569,10 569,10 569,10 569,10 569,10 569,10 569,10 569,10 569,10 569,10 569,10 569,10 569,10 569,10 569,10 569,10 569,10 569,10 569,10 569,10 569,10 569,10 569,10 569,10 569,10 569,10 569,10 569,10 569,10 569,10 569,10 569,10 569,10 569,10 569,10 569,10 569,10 570,10 570,10 570,10 570,10 570,10 570,10 570,10 570,10 570,10 570,10 570,10 570,10 570,10 570,10 570,10 570,10 570,10 570,10 570,10 570,10 570,10 570,10 570,10 570,10 570,10 570,10 570,10 570,10 570,10 570,10 570,10 570,10 570,10 570,10 570,10 570,10 570,10 570,10 570,10 570,10 570,10 570,10 570,10 570,10 570,10 570,10 570,10 570,10 570,10 570,10 570,10 570,10 570,10 570,10 570,10 570,10 570,10 570,10 570,10 570,10 570,10 570,10 570,10 570,10 570,10 570,10 570,10 570,10 570,10 570,10 570,10 570,10 570,10 571,10 571,10 571,10 571,10 571,10 571,10 571,10 571,10 571,10 571,10 571,10 571,10 571,10 571,10 571,10 571,10 571,10 571,10 571,10 571,10 571,10 571,10 571,10 571,10 571,10 571,10 571,10 571,10 571,10 571,10 571,10 571,10 571,10 571,10 571,10 571,10 571,10 571,10 571,10 571,10 571,10 571,10 571,10 571,10 571,10 571,10 571,10 571,10 571,10 571,10 571,10 571,10 571,10 571,10 571,10 571,10 571,10 571,10 571,10 571,10 571,10 571,10 571,10 571,10 571,10 571,10 571,10 571,10 571,10 571,10 571,10 571,10 571,10 571,10 571,10 571,10 572,10 572,10 572,10 572,10 572,10 572,10 572,10 572,10 572,10 572,10 572,10 572,10 572,10 572,10 572,10 572,10 572,10 572,10 572,10 572,10 572,10 572,10 572,10 572,10 572,10 572,10 572,10 572,10 572,10 572,10 572,10 572,10 572,10 572,10 572,10 572,10 572,10 572,10 572,10 572,10 572,10 572,10 572,10 572,10 572,10 572,10 572,10 572,10 572,10 572,10 572,10 572,10 572,10 572,10 572,10 572,10 572,10 572,10 572,10 572,10 572,10 572,10 572,10 572,10 572,10 572,10 572,10 572,10 572,10 572,10 572,10 572,10 572,10 572,10 572,10 572,10 572,10 573,10 573,10 573,10 573,10 573,10 573,10 573,10 573,10 573,10 573,10 573,10 573,10 573,10 573,10 573,10 573,10 573,10 573,10 573,10 573,10 573,10 573,10 573,10 573,10 573,10 573,10 573,10 573,10 573,10 573,10 573,10 573,10 573,10 573,10 573,10 573,10 573,10 573,10 573,10 573,10 573,10 573,10 573,10 573,10 573,10 573,10 573,10 573,10 573,10 573,10 573,10 573,10 573,10 573,10 573,10 573,10 573,10 573,10 573,10 573,10 573,10 573,10 573,10 573,10 573,10 573,10 573,10 573,10 573,10 573,10 573,10 573,10 573,10 573,10 573,10 573,10 573,10 573,10 574,10 574,10 574,10 574,10 574,10 574,10 574,10 574,10 574,10 574,10 574,10 574,10 574,10 574,10 574,10 574,10 574,10 574,10 574,10 574,10 574,10 574,10 574,10 574,10 574,10 574,10 574,10 574,10 574,10 574,10 574,10 574,10 574,10 574,10 574,10 574,10 574,10 574,10 574,10 574,10 574,10 574,10 574,10 574,10 574,10 574,10 574,10 574,10 574,10 574,10 574,10 574,10 574,10 574,10 574,10 574,10 574,10 574,10 574,10 574,10 574,10 574,10 574,10 574,10 574,10 574,10 574,10 574,10 574,10 574,10 574,10 574,10 574,10 574,10 574,10 574,10 574,10 574,10 574,10 574,10 574,10 575,10 575,10 575,10 575,10 575,10 575,10 575,10 575,10 575,10 575,10 575,10 575,10 575,10 575,10 575,10 575,10 575,10 575,10 575,10 575,10 575,10 575,10 575,10 575,10 575,10 575,10 575,10 575,10 575,10 575,10 575,10 575,10 575,10 575,10 575,10 575,10 575,10 575,10 575,10 575,10 575,10 575,10 575,10 575,10 575,10 575,10 575,10 575,10 575,10 575,10 575,10 575,10 575,10 575,10 575,10 575,10 575,10 575,10 575,10 575,10 575,10 575,10 575,10 575,10 575,10 575,10 575,10 575,10 575,10 575,10 575,10 575,10 575,10 575,10 575,10 575,10 575,10 575,10 575,10 575,10 575,10 575,10 576,10 576,10 576,10 576,10 576,10 576,10 576,10 576,10 576,10 576,10 576,10 576,10 576,10 576,10 576,10 576,10 576,10 576,10 576,10 576,10 576,10 576,10 576,10 576,10 576,10 576,10 576,10 576,10 576,10 576,10 576,10 576,10 576,10 576,10 576,10 576,10 576,10 576,10 576,10 576,10 576,10 576,10 576,10 576,10 576,10 576,10 576,10 576,10 576,10 576,10 576,10 576,10 576,10 576,10 576,10 576,10 576,10 576,10 576,10 576,10 576,10 576,10 576,10 576,10 576,10 576,10 576,10 576,10 576,10 576,10 576,10 576,10 576,10 576,10 576,10 576,10 576,10 576,10 576,10 576,10 576,10 576,10 576,10 576,10 577,10 577,10 577,10 577,10 577,10 577,10 577,10 577,10 577,10 577,10 577,10 577,10 577,10 577,10 577,10 577,10 577,10 577,10 577,10 577,10 577,10 577,10 577,10 577,10 577,10 577,10 577,10 577,10 577,10 577,10 577,10 577,10 577,10 577,10 577,10 577,10 577,10 577,10 577,10 577,10 577,10 577,10 577,10 577,10 577,10 577,10 577,10 577,10 577,10 577,10 577,10 577,10 577,10 577,10 577,10 577,10 577,10 577,10 577,10 577,10 577,10 577,10 577,10 577,10 577,10 577,10 577,10 577,10 577,10 577,10 577,10 577,10 577,10 577,10 577,10 577,10 577,10 577,10 577,10 577,10 577,10 577,10 577,10 577,10 577,10 577,10 578,10 578,10 578,10 578,10 578,10 578,10 578,10 578,10 578,10 578,10 578,10 578,10 578,10 578,10 578,10 578,10 578,10 578,10 578,10 578,10 578,10 578,10 578,10 578,10 578,10 578,10 578,10 578,10 578,10 578,10 578,10 578,10 578,10 578,10 578,10 578,10 578,10 578,10 578,10 578,10 578,10 578,10 578,10 578,10 578,10 578,10 578,10 578,10 578,10 578,10 578,10 578,10 578,10 578,10 578,10 578,10 578,10 578,10 578,10 578,10 578,10 578,10 578,10 578,10 578,10 578,10 578,10 578,10 578,10 578,10 578,10 578,10 578,10 578,10 578,10 578,10 578,10 578,10 578,10 578,10 578,10 578,10 578,10 578,10 578,10 578,10 578,10 578,10 579,10 579,10 579,10 579,10 579,10 579,10 579,10 579,10 579,10 579,10 579,10 579,10 579,10 579,10 579,10 579,10 579,10 579,10 579,10 579,10 579,10 579,10 579,10 579,10 579,10 579,10 579,10 579,10 579,10 579,10 579,10 579,10 579,10 579,10 579,10 579,10 579,10 579,10 579,10 579,10 579,10 579,10 579,10 579,10 579,10 579,10 579,10 579,10 579,10 579,10 579,10 579,10 579,10 579,10 579,10 579,10 579,10 579,10 579,10 579,10 579,10 579,10 579,10 579,10 579,10 579,10 579,10 579,10 579,10 579,10 579,10 579,10 579,10 579,10 579,10 579,10 579,10 579,10 579,10 579,10 579,10 579,10 579,10 579,10 579,10 579,10 579,10 579,10 579,10 579,10 580,10 580,10 580,10 580,10 580,10 580,10 580,10 580,10 580,10 580,10 580,10 580,10 580,10 580,10 580,10 580,10 580,10 580,10 580,10 580,10 580,10 580,10 580,10 580,10 580,10 580,10 580,10 580,10 580,10 580,10 580,10 580,10 580,10 580,10 580,10 580,10 580,10 580,10 580,10 580,10 580,10 580,10 580,10 580,10 580,10 580,10 580,10 580,10 580,10 580,10 580,10 580,10 580,10 580,10 580,10 580,10 580,10 580,10 580,10 580,10 580,10 580,10 580,10 580,10 580,10 580,10 580,10 580,10 580,10 580,10 580,10 580,10 580,10 580,10 580,10 580,10 580,10 580,10 580,10 580,10 580,10 580,10 580,10 580,10 580,10 580,10 580,10 580,10 580,10 580,10 580,10 581,10 581,10 581,10 581,10 581,10 581,10 581,10 581,10 581,10 581,10 581,10 581,10 581,10 581,10 581,10 581,10 581,10 581,10 581,10 581,10 581,10 581,10 581,10 581,10 581,10 581,10 581,10 581,10 581,10 581,10 581,10 581,10 581,10 581,10 581,10 581,10 581,10 581,10 581,10 581,10 581,10 581,10 581,10 581,10 581,10 581,10 581,10 581,10 581,10 581,10 581,10 581,10 581,10 581,10 581,10 581,10 581,10 581,10 581,10 581,10 581,10 581,10 581,10 581,10 581,10 581,10 581,10 581,10 581,10 581,10 581,10 581,10 581,10 581,10 581,10 581,10 581,10 581,10 581,10 581,10 581,10 581,10 581,10 581,10 581,10 581,10 581,10 581,10 581,10 581,10 581,10 581,10 581,10 581,10 582,10 582,10 582,10 582,10 582,10 582,10 582,10 582,10 582,10 582,10 582,10 582,10 582,10 582,10 582,10 582,10 582,10 582,10 582,10 582,10 582,10 582,10 582,10 582,10 582,10 582,10 582,10 582,10 582,10 582,10 582,10 582,10 582,10 582,10 582,10 582,10 582,10 582,10 582,10 582,10 582,10 582,10 582,10 582,10 582,10 582,10 582,10 582,10 582,10 582,10 582,10 582,10 582,10 582,10 582,10 582,10 582,10 582,10 582,10 582,10 582,10 582,10 582,10 582,10 582,10 582,10 582,10 582,10 582,10 582,10 582,10 582,10 582,10 582,10 582,10 582,10 582,10 582,10 582,10 582,10 582,10 582,10 582,10 582,10 582,10 582,10 582,10 582,10 582,10 582,10 582,10 582,10 582,10 582,10 582,10 582,10 583,10 583,10 583,10 583,10 583,10 583,10 583,10 583,10 583,10 583,10 583,10 583,10 583,10 583,10 583,10 583,10 583,10 583,10 583,10 583,10 583,10 583,10 583,10 583,10 583,10 583,10 583,10 583,10 583,10 583,10 583,10 583,10 583,10 583,10 583,10 583,10 583,10 583,10 583,10 583,10 583,10 583,10 583,10 583,10 583,10 583,10 583,10 583,10 583,10 583,10 583,10 583,10 583,10 583,10 583,10 583,10 583,10 583,10 583,10 583,10 583,10 583,10 583,10 583,10 583,10 583,10 583,10 583,10 583,10 583,10 583,10 583,10 583,10 583,10 583,10 583,10 583,10 583,10 583,10 583,10 583,10 583,10 583,10 583,10 583,10 583,10 583,10 583,10 583,10 583,10 583,10 583,10 583,10 583,10 583,10 583,10 583,10 583,10 584,10 584,10 584,10 584,10 584,10 584,10 584,10 584,10 584,10 584,10 584,10 584,10 584,10 584,10 584,10 584,10 584,10 584,10 584,10 584,10 584,10 584,10 584,10 584,10 584,10 584,10 584,10 584,10 584,10 584,10 584,10 584,10 584,10 584,10 584,10 584,10 584,10 584,10 584,10 584,10 584,10 584,10 584,10 584,10 584,10 584,10 584,10 584,10 584,10 584,10 584,10 584,10 584,10 584,10 584,10 584,10 584,10 584,10 584,10 584,10 584,10 584,10 584,10 584,10 584,10 584,10 584,10 584,10 584,10 584,10 584,10 584,10 584,10 584,10 584,10 584,10 584,10 584,10 584,10 584,10 584,10 584,10 584,10 584,10 584,10 584,10 584,10 584,10 584,10 584,10 584,10 584,10 584,10 584,10 584,10 584,10 584,10 584,10 584,10 584,10 584,10 585,10 585,10 585,10 585,10 585,10 585,10 585,10 585,10 585,10 585,10 585,10 585,10 585,10 585,10 585,10 585,10 585,10 585,10 585,10 585,10 585,10 585,10 585,10 585,10 585,10 585,10 585,10 585,10 585,10 585,10 585,10 585,10 585,10 585,10 585,10 585,10 585,10 585,10 585,10 585,10 585,10 585,10 585,10 585,10 585,10 585,10 585,10 585,10 585,10 585,10 585,10 585,10 585,10 585,10 585,10 585,10 585,10 585,10 585,10 585,10 585,10 585,10 585,10 585,10 585,10 585,10 585,10 585,10 585,10 585,10 585,10 585,10 585,10 585,10 585,10 585,10 585,10 585,10 585,10 585,10 585,10 585,10 585,10 585,10 585,10 585,10 585,10 585,10 585,10 585,10 585,10 585,10 585,10 585,10 585,10 585,10 585,10 585,10 585,10 585,10 585,10 585,10 586,10 586,10 586,10 586,10 586,10 586,10 586,10 586,10 586,10 586,10 586,10 586,10 586,10 586,10 586,10 586,10 586,10 586,10 586,10 586,10 586,10 586,10 586,10 586,10 586,10 586,10 586,10 586,10 586,10 586,10 586,10 586,10 586,10 586,10 586,10 586,10 586,10 586,10 586,10 586,10 586,10 586,10 586,10 586,10 586,10 586,10 586,10 586,10 586,10 586,10 586,10 586,10 586,10 586,10 586,10 586,10 586,10 586,10 586,10 586,10 586,10 586,10 586,10 586,10 586,10 586,10 586,10 586,10 586,10 586,10 586,10 586,10 586,10 586,10 586,10 586,10 586,10 586,10 586,10 586,10 586,10 586,10 586,10 586,10 586,10 586,10 586,10 586,10 586,10 586,10 586,10 586,10 586,10 586,10 586,10 586,10 586,10 586,10 586,10 586,10 586,10 586,10 586,10 586,10 586,10 587,10 587,10 587,10 587,10 587,10 587,10 587,10 587,10 587,10 587,10 587,10 587,10 587,10 587,10 587,10 587,10 587,10 587,10 587,10 587,10 587,10 587,10 587,10 587,10 587,10 587,10 587,10 587,10 587,10 587,10 587,10 587,10 587,10 587,10 587,10 587,10 587,10 587,10 587,10 587,10 587,10 587,10 587,10 587,10 587,10 587,10 587,10 587,10 587,10 587,10 587,10 587,10 587,10 587,10 587,10 587,10 587,10 587,10 587,10 587,10 587,10 587,10 587,10 587,10 587,10 587,10 587,10 587,10 587,10 587,10 587,10 587,10 587,10 587,10 587,10 587,10 587,10 587,10 587,10 587,10 587,10 587,10 587,10 587,10 587,10 587,10 587,10 587,10 587,10 587,10 587,10 587,10 587,10 587,10 587,10 587,10 587,10 587,10 587,10 587,10 587,10 587,10 587,10 587,10 587,10 587,10 587,10 587,10 588,10 588,10 588,10 588,10 588,10 588,10 588,10 588,10 588,10 588,10 588,10 588,10 588,10 588,10 588,10 588,10 588,10 588,10 588,10 588,10 588,10 588,10 588,10 588,10 588,10 588,10 588,10 588,10 588,10 588,10 588,10 588,10 588,10 588,10 588,10 588,10 588,10 588,10 588,10 588,10 588,10 588,10 588,10 588,10 588,10 588,10 588,10 588,10 588,10 588,10 588,10 588,10 588,10 588,10 588,10 588,10 588,10 588,10 588,10 588,10 588,10 588,10 588,10 588,10 588,10 588,10 588,10 588,10 588,10 588,10 588,10 588,10 588,10 588,10 588,10 588,10 588,10 588,10 588,10 588,10 588,10 588,10 588,10 588,10 588,10 588,10 588,10 588,10 588,10 588,10 588,10 588,10 588,10 588,10 588,10 588,10 588,10 588,10 588,10 588,10 588,10 588,10 588,10 588,10 588,10 588,10 588,10 588,10 588,10 589,10 "/>
<polyline fill="none" opacity="1" stroke="#FF8C00" stroke-width="2" points="70,239 205,239 236,239 254,239 267,239 277,239 285,238 292,238 298,238 304,237 308,237 313,237 317,236 320,236 324,235 327,235 330,234 332,234 335,233 337,233 340,232 342,232 344,231 346,231 348,230 350,229 351,229 353,228 355,227 356,227 358,226 359,225 361,225 362,224 364,223 365,222 366,222 367,221 369,220 370,219 371,219 372,218 373,217 374,216 375,216 376,215 377,214 378,213 379,212 380,211 381,211 382,210 383,209 384,208 384,207 385,207 386,206 387,205 388,204 388,203 389,202 390,202 391,201 391,200 392,199 393,198 393,198 394,197 395,196 395,195 396,194 397,193 397,193 398,192 399,191 399,190 400,189 400,189 401,188 402,187 402,186 403,185 403,185 404,184 404,183 405,182 405,181 406,181 406,180 407,179 407,178 408,178 408,177 409,176 409,175 410,175 410,174 411,173 411,172 412,172 412,171 413,170 413,169 413,169 414,168 414,167 415,167 415,166 416,165 416,164 416,164 417,163 417,162 418,162 418,161 418,160 419,160 419,159 420,158 420,158 420,157 421,156 421,156 421,155 422,154 422,154 423,153 423,153 423,152 424,151 424,151 424,150 425,149 425,149 425,148 426,148 426,147 426,146 427,146 427,145 427,145 428,144 428,144 428,143 429,142 429,142 429,141 430,141 430,140 430,140 430,139 431,139 431,138 431,137 432,137 432,136 432,136 432,135 433,135 433,134 433,134 434,133 434,133 434,132 434,132 435,131 435,131 435,130 436,130 436,129 436,129 436,128 437,128 437,127 437,127 437,126 438,126 438,126 438,125 438,125 439,124 439,124 439,123 439,123 440,122 440,122 440,122 440,121 441,121 441,120 441,120 441,119 442,119 442,119 442,118 442,118 442,117 443,117 443,116 443,116 443,116 444,115 444,115 444,114 444,114 445,114 445,113 445,113 445,113 445,112 446,112 446,111 446,111 446,111 446,110 447,110 447,110 447,109 447,109 447,108 448,108 448,108 448,107 448,107 449,107 449,106 449,106 449,106 449,105 449,105 450,105 450,104 450,104 450,104 450,103 451,103 451,103 451,102 451,102 451,102 452,101 452,101 452,101 452,100 452,100 453,100 453,100 453,99 453,99 453,99 453,98 454,98 454,98 454,97 454,97 454,97 455,97 455,96 455,96 455,96 455,95 455,95 456,95 456,95 456,94 456,94 456,94 456,94 457,93 457,93 457,93 457,92 457,92 457,92 458,92 458,91 458,91 458,91 458,91 458,90 459,90 459,90 459,90 459,89 459,89 459,89 460,89 460,88 460,88 460,88 460,88 460,87 460,87 461,87 461,87 461,86 461,86 461,86 461,86 462,86 462,85 462,85 462,85 462,85 462,84 462,84 463,84 463,84 463,84 463,83 463,83 463,83 463,83 464,82 464,82 464,82 464,82 464,82 464,81 464,81 465,81 465,81 465,81 465,80 465,80 465,80 465,80 466,80 466,79 466,79 466,79 466,79 466,79 466,78 467,78 467,78 467,78 467,78 467,77 467,77 467,77 467,77 468,77 468,76 468,76 468,76 468,76 468,76 468,76 468,75 469,75 469,75 469,75 469,75 469,75 469,74 469,74 470,74 470,74 470,74 470,73 470,73 470,73 470,73 470,73 471,73 471,72 471,72 471,72 471,72 471,72 471,72 471,71 471,71 472,71 472,71 472,71 472,71 472,71 472,70 472,70 472,70 473,70 473,70 473,70 473,69 473,69 473,69 473,69 473,69 474,69 474,69 474,68 474,68 474,68 474,68 474,68 474,68 474,68 475,67 475,67 475,67 475,67 475,67 475,67 475,67 475,66 475,66 476,66 476,66 476,66 476,66 476,66 476,65 476,65 476,65 476,65 477,65 477,65 477,65 477,64 477,64 477,64 477,64 477,64 477,64 477,64 478,64 478,63 478,63 478,63 478,63 478,63 478,63 478,63 478,63 479,62 479,62 479,62 479,62 479,62 479,62 479,62 479,62 479,61 479,61 480,61 480,61 480,61 480,61 480,61 480,61 480,61 480,60 480,60 480,60 481,60 481,60 481,60 481,60 481,60 481,59 481,59 481,59 481,59 481,59 482,59 482,59 482,59 482,59 482,59 482,58 482,58 482,58 482,58 482,58 482,58 483,58 483,58 483,58 483,57 483,57 483,57 483,57 483,57 483,57 483,57 484,57 484,57 484,57 484,56 484,56 484,56 484,56 484,56 484,56 484,56 484,56 485,56 485,56 485,55 485,55 485,55 485,55 485,55 485,55 485,55 485,55 485,55 486,55 486,54 486,54 486,54 486,54 486,54 486,54 486,54 486,54 486,54 486,54 486,54 487,53 487,53 487,53 487,53 487,53 487,53 487,53 487,53 487,53 487,53 487,53 487,52 488,52 488,52 488,52 488,52 488,52 488,52 488,52 488,52 488,52 488,52 488,52 489,51 489,51 489,51 489,51 489,51 489,51 489,51 489,51 489,51 489,51 489,51 489,51 489,50 490,50 490,50 490,50 490,50 490,50 490,50 490,50 490,50 490,50 490,50 490,50 490,50 491,49 491,49 491,49 491,49 491,49 491,49 491,49 491,49 491,49 491,49 491,49 491,49 491,49 492,48 492,48 492,48 492,48 492,48 492,48 492,48 492,48 492,48 492,48 492,48 492,48 492,48 493,48 493,47 493,47 493,47 493,47 493,47 493,47 493,47 493,47 493,47 493,47 493,47 493,47 494,47 494,47 494,47 494,46 494,46 494,46 494,46 494,46 494,46 494,46 494,46 494,46 494,46 494,46 495,46 495,46 495,46 495,46 495,45 495,45 495,45 495,45 495,45 495,45 495,45 495,45 495,45 495,45 496,45 496,45 496,45 496,45 496,45 496,45 496,44 496,44 496,44 496,44 496,44 496,44 496,44 496,44 497,44 497,44 497,44 497,44 497,44 497,44 497,44 497,44 497,43 497,43 497,43 497,43 497,43 497,43 497,43 498,43 498,43 498,43 498,43 498,43 498,43 498,43 498,43 498,43 498,43 498,43 498,42 498,42 498,42 498,42 499,42 499,42 499,42 499,42 499,42 499,42 499,42 499,42 499,42 499,42 499,42 499,42 499,42 499,42 499,41 500,41 500,41 500,41 500,41 500,41 500,41 500,41 500,41 500,41 500,41 500,41 500,41 500,41 500,41 500,41 501,41 501,41 501,41 501,40 501,40 501,40 501,40 501,40 501,40 501,40 501,40 501,40 501,40 501,40 501,40 501,40 502,40 502,40 502,40 502,40 502,40 502,40 502,40 502,40 502,39 502,39 502,39 502,39 502,39 502,39 502,39 502,39 502,39 503,39 503,39 503,39 503,39 503,39 503,39 503,39 503,39 503,39 503,39 503,39 503,39 503,38 503,38 503,38 503,38 504,38 504,38 504,38 504,38 504,38 504,38 504,38 504,38 504,38 504,38 504,38 504,38 504,38 504,38 504,38 504,38 504,38 505,38 505,38 505,37 505,37 505,37 505,37 505,37 505,37 505,37 505,37 505,37 505,37 505,37 505,37 505,37 505,37 505,37 505,37 506,37 506,37 506,37 506,37 506,37 506,37 506,37 506,37 506,36 506,36 506,36 506,36 506,36 506,36 506,36 506,36 506,36 507,36 507,36 507,36 507,36 507,36 507,36 507,36 507,36 507,36 507,36 507,36 507,36 507,36 507,36 507,36 507,36 507,35 507,35 507,35 508,35 508,35 508,35 508,35 508,35 508,35 508,35 508,35 508,35 508,35 508,35 508,35 508,35 508,35 508,35 508,35 508,35 508,35 509,35 509,35 509,35 509,35 509,35 509,35 509,34 509,34 509,34 509,34 509,34 509,34 509,34 509,34 509,34 509,34 509,34 509,34 509,34 510,34 510,34 510,34 510,34 510,34 510,34 510,34 510,34 510,34 510,34 510,34 510,34 510,34 510,34 510,34 510,34 510,33 510,33 510,33 510,33 511,33 511,33 511,33 511,33 511,33 511,33 511,33 511,33 511,33 511,33 511,33 511,33 511,33 511,33 511,33 511,33 511,33 511,33 511,33 511,33 512,33 512,33 512,33 512,33 512,33 512,33 512,33 512,32 512,32 512,32 512,32 512,32 512,32 512,32 512,32 512,32 512,32 512,32 512,32 512,32 513,32 513,32 513,32 513,32 513,32 513,32 513,32 513,32 513,32 513,32 513,32 513,32 513,32 513,32 513,32 513,32 513,32 513,32 513,32 513,32 513,31 514,31 514,31 514,31 514,31 514,31 514,31 514,31 514,31 514,31 514,31 514,31 514,31 514,31 514,31 514,31 514,31 514,31 514,31 514,31 514,31 514,31 515,31 515,31 515,31 515,31 515,31 515,31 515,31 515,31 515,31 515,31 515,31 515,31 515,31 515,30 515,30 515,30 515,30 515,30 515,30 515,30 515,30 515,30 516,30 516,30 516,30 516,30 516,30 516,30 516,30 516,30 516,30 516,30 516,30 516,30 516,30 516,30 516,30 516,30 516,30 516,30 516,30 516,30 516,30 516,30 517,30 517,30 517,30 517,30 517,30 517,30 517,30 517,29 517,29 517,29 517,29 517,29 517,29 517,29 517,29 517,29 517,29 517,29 517,29 517,29 517,29 517,29 517,29 518,29 518,29 518,29 518,29 518,29 518,29 518,29 518,29 518,29 518,29 518,29 518,29 518,29 518,29 518,29 518,29 518,29 518,29 518,29 518,29 518,29 518,29 518,29 519,29 519,28 519,28 519,28 519,28 519,28 519,28 519,28 519,28 519,28 519,28 519,28 519,28 519,28 519,28 519,28 519,28 519,28 519,28 519,28 519,28 519,28 519,28 520,28 520,28 520,28 520,28 520,28 520,28 520,28 520,28 520,28 520,28 520,28 520,28 520,28 520,28 520,28 520,28 520,28 520,28 520,28 520,28 520,28 520,28 520,27 520,27 520,27 521,27 521,27 521,27 521,27 521,27 521,27 521,27 521,27 521,27 521,27 521,27 521,27 521,27 521,27 521,27 521,27 521,27 521,27 521,27 521,27 521,27 521,27 521,27 521,27 521,27 522,27 522,27 522,27 522,27 522,27 522,27 522,27 522,27 522,27 522,27 522,27 522,27 522,27 522,27 522,27 522,27 522,27 522,27 522,27 522,27 522,26 522,26 522,26 522,26 522,26 523,26 523,26 523,26 523,26 523,26 523,26 523,26 523,26 523,26 523,26 523,26 523,26 523,26 523,26 523,26 523,26 523,26 523,26 523,26 523,26 523,26 523,26 523,26 523,26 523,26 523,26 524,26 524,26 524,26 524,26 524,26 524,26 524,26 524,26 524,26 524,26 524,26 524,26 524,26 524,26 524,26 524,26 524,26 524,26 524,26 524,26 524,26 524,25 524,25 524,25 524,25 524,25 525,25 525,25 525,25 525,25 525,25 525,25 525,25 525,25 525,25 525,25 525,25 525,25 525,25 525,25 525,25 525,25 525,25 525,25 525,25 525,25 525,25 525,25 525,25 525,25 525,25 525,25 525,25 525,25 526,25 526,25 526,25 526,25 526,25 526,25 526,25 526,25 526,25 526,25 526,25 526,25 526,25 526,25 526,25 526,25 526,25 526,25 526,25 526,25 526,25 526,25 526,25 526,25 526,24 526,24 526,24 527,24 527,24 527,24 527,24 527,24 527,24 527,24 527,24 527,24 527,24 527,24 527,24 527,24 527,24 527,24 527,24 527,24 527,24 527,24 527,24 527,24 527,24 527,24 527,24 527,24 527,24 527,24 527,24 527,24 528,24 528,24 528,24 528,24 528,24 528,24 528,24 528,24 528,24 528,24 528,24 528,24 528,24 528,24 528,24 528,24 528,24 528,24 528,24 528,24 528,24 528,24 528,24 528,24 528,24 528,24 528,24 528,24 528,24 529,24 529,23 529,23 529,23 529,23 529,23 529,23 529,23 529,23 529,23 529,23 529,23 529,23 529,23 529,23 529,23 529,23 529,23 529,23 529,23 529,23 529,23 529,23 529,23 529,23 529,23 529,23 529,23 529,23 530,23 530,23 530,23 530,23 530,23 530,23 530,23 530,23 530,23 530,23 530,23 530,23 530,23 530,23 530,23 530,23 530,23 530,23 530,23 530,23 530,23 530,23 530,23 530,23 530,23 530,23 530,23 530,23 530,23 530,23 531,23 531,23 531,23 531,23 531,23 531,23 531,23 531,23 531,23 531,23 531,22 531,22 531,22 531,22 531,22 531,22 531,22 531,22 531,22 531,22 531,22 531,22 531,22 531,22 531,22 531,22 531,22 531,22 531,22 531,22 531,22 532,22 532,22 532,22 532,22 532,22 532,22 532,22 532,22 532,22 532,22 532,22 532,22 532,22 532,22 532,22 532,22 532,22 532,22 532,22 532,22 532,22 532,22 532,22 532,22 532,22 532,22 532,22 532,22 532,22 532,22 532,22 532,22 533,22 533,22 533,22 533,22 533,22 533,22 533,22 533,22 533,22 533,22 533,22 533,22 533,22 533,22 533,22 533,22 533,22 533,22 533,22 533,22 533,22 533,22 533,22 533,21 533,21 533,21 533,21 533,21 533,21 533,21 533,21 533,21 533,21 534,21 534,21 534,21 534,21 534,21 534,21 534,21 534,21 534,21 534,21 534,21 534,21 534,21 534,21 534,21 534,21 534,21 534,21 534,21 534,21 534,21 534,21 534,21 534,21 534,21 534,21 534,21 534,21 534,21 534,21 534,21 534,21 534,21 535,21 535,21 535,21 535,21 535,21 535,21 535,21 535,21 535,21 535,21 535,21 535,21 535,21 535,21 535,21 535,21 535,21 535,21 535,21 535,21 535,21 535,21 535,21 535,21 535,21 535,21 535,21 535,21 535,21 535,21 535,21 535,21 535,21 536,21 536,21 536,21 536,21 536,21 536,21 536,21 536,21 536,21 536,20 536,20 536,20 536,20 536,20 536,20 536,20 536,20 536,20 536,20 536,20 536,20 536,20 536,20 536,20 536,20 536,20 536,20 536,20 536,20 536,20 536,20 536,20 536,20 536,20 536,20 537,20 537,20 537,20 537,20 537,20 537,20 537,20 537,20 537,20 537,20 537,20 537,20 537,20 537,20 537,20 537,20 537,20 537,20 537,20 537,20 537,20 537,20 537,20 537,20 537,20 537,20 537,20 537,20 537,20 537,20 537,20 537,20 537,20 537,20 537,20 538,20 538,20 538,20 538,20 538,20 538,20 538,20 538,20 538,20 538,20 538,20 538,20 538,20 538,20 538,20 538,20 538,20 538,20 538,20 538,20 538,20 538,20 538,20 538,20 538,20 538,20 538,20 538,20 538,20 538,20 538,20 538,20 538,20 538,19 538,19 538,19 538,19 539,19 539,19 539,19 539,19 539,19 539,19 539,19 539,19 539,19 539,19 539,19 539,19 539,19 539,19 539,19 539,19 539,19 539,19 539,19 539,19 539,19 539,19 539,19 539,19 539,19 539,19 539,19 539,19 539,19 539,19 539,19 539,19 539,19 539,19 539,19 539,19 539,19 540,19 540,19 540,19 540,19 540,19 540,19 540,19 540,19 540,19 540,19 540,19 540,19 540,19 540,19 540,19 540,19 540,19 540,19 540,19 540,19 540,19 540,19 540,19 540,19 540,19 540,19 540,19 540,19 540,19 540,19 540,19 540,19 540,19 540,19 540,19 540,19 540,19 541,19 541,19 541,19 541,19 541,19 541,19 541,19 541,19 541,19 541,19 541,19 541,19 541,19 541,19 541,19 541,19 541,19 541,19 541,19 541,19 541,19 541,19 541,19 541,19 541,19 541,19 541,19 541,19 541,19 541,18 541,18 541,18 541,18 541,18 541,18 541,18 541,18 541,18 541,18 542,18 542,18 542,18 542,18 542,18 542,18 542,18 542,18 542,18 542,18 542,18 542,18 542,18 542,18 542,18 542,18 542,18 542,18 542,18 542,18 542,18 542,18 542,18 542,18 542,18 542,18 542,18 542,18 542,18 542,18 542,18 542,18 542,18 542,18 542,18 542,18 542,18 542,18 542,18 542,18 543,18 543,18 543,18 543,18 543,18 543,18 543,18 543,18 543,18 543,18 543,18 543,18 543,18 543,18 543,18 543,18 543,18 543,18 543,18 543,18 543,18 543,18 543,18 543,18 543,18 543,18 543,18 543,18 543,18 543,18 543,18 543,18 543,18 543,18 543,18 543,18 543,18 543,18 543,18 543,18 544,18 544,18 544,18 544,18 544,18 544,18 544,18 544,18 544,18 544,18 544,18 544,18 544,18 544,18 544,18 544,18 544,18 544,18 544,18 544,18 544,18 544,18 544,18 544,18 544,18 544,18 544,18 544,18 544,18 544,18 544,18 544,17 544,17 544,17 544,17 544,17 544,17 544,17 544,17 544,17 544,17 545,17 545,17 545,17 545,17 545,17 545,17 545,17 545,17 545,17 545,17 545,17 545,17 545,17 545,17 545,17 545,17 545,17 545,17 545,17 545,17 545,17 545,17 545,17 545,17 545,17 545,17 545,17 545,17 545,17 545,17 545,17 545,17 545,17 545,17 545,17 545,17 545,17 545,17 545,17 545,17 545,17 545,17 545,17 546,17 546,17 546,17 546,17 546,17 546,17 546,17 546,17 546,17 546,17 546,17 546,17 546,17 546,17 546,17 546,17 546,17 546,17 546,17 546,17 546,17 546,17 546,17 546,17 546,17 546,17 546,17 546,17 546,17 546,17 546,17 546,17 546,17 546,17 546,17 546,17 546,17 546,17 546,17 546,17 546,17 546,17 546,17 547,17 547,17 547,17 547,17 547,17 547,17 547,17 547,17 547,17 547,17 547,17 547,17 547,17 547,17 547,17 547,17 547,17 547,17 547,17 547,17 547,17 547,17 547,17 547,17 547,17 547,17 547,17 547,17 547,17 547,17 547,17 547,17 547,17 547,17 547,17 547,17 547,17 547,17 547,17 547,17 547,17 547,17 547,17 547,16 548,16 548,16 548,16 548,16 548,16 548,16 548,16 548,16 548,16 548,16 548,16 548,16 548,16 548,16 548,16 548,16 548,16 548,16 548,16 548,16 548,16 548,16 548,16 548,16 548,16 548,16 548,16 548,16 548,16 548,16 548,16 548,16 548,16 548,16 548,16 548,16 548,16 548,16 548,16 548,16 548,16 548,16 548,16 548,16 548,16 549,16 549,16 549,16 549,16 549,16 549,16 549,16 549,16 549,16 549,16 549,16 549,16 549,16 549,16 549,16 549,16 549,16 549,16 549,16 549,16 549,16 549,16 549,16 549,16 549,16 549,16 549,16 549,16 549,16 549,16 549,16 549,16 549,16 549,16 549,16 549,16 549,16 549,16 549,16 549,16 549,16 549,16 549,16 549,16 549,16 549,16 550,16 550,16 550,16 550,16 550,16 550,16 550,16 550,16 550,16 550,16 550,16 550,16 550,16 550,16 550,16 550,16 550,16 550,16 550,16 550,16 550,16 550,16 550,16 550,16 550,16 550,16 550,16 550,16 550,16 550,16 550,16 550,16 550,16 550,16 550,16 550,16 550,16 550,16 550,16 550,16 550,16 550,16 550,16 550,16 550,16 550,16 550,16 550,16 551,16 551,16 551,16 551,16 551,16 551,16 551,16 551,16 551,16 551,16 551,16 551,16 551,16 551,16 551,16 551,16 551,16 551,16 551,16 551,16 551,16 551,16 551,15 551,15 551,15 551,15 551,15 551,15 551,15 551,15 551,15 551,15 551,15 551,15 551,15 551,15 551,15 551,15 551,15 551,15 551,15 551,15 551,15 551,15 551,15 551,15 551,15 551,15 552,15 552,15 552,15 552,15 552,15 552,15 552,15 552,15 552,15 552,15 552,15 552,15 552,15 552,15 552,15 552,15 552,15 552,15 552,15 552,15 552,15 552,15 552,15 552,15 552,15 552,15 552,15 552,15 552,15 552,15 552,15 552,15 552,15 552,15 552,15 552,15 552,15 552,15 552,15 552,15 552,15 552,15 552,15 552,15 552,15 552,15 552,15 552,15 552,15 553,15 553,15 553,15 553,15 553,15 553,15 553,15 553,15 553,15 553,15 553,15 553,15 553,15 553,15 553,15 553,15 553,15 553,15 553,15 553,15 553,15 553,15 553,15 553,15 553,15 553,15 553,15 553,15 553,15 553,15 553,15 553,15 553,15 553,15 553,15 553,15 553,15 553,15 553,15 553,15 553,15 553,15 553,15 553,15 553,15 553,15 553,15 553,15 553,15 553,15 553,15 554,15 554,15 554,15 554,15 554,15 554,15 554,15 554,15 554,15 554,15 554,15 554,15 554,15 554,15 554,15 554,15 554,15 554,15 554,15 554,15 554,15 554,15 554,15 554,15 554,15 554,15 554,15 554,15 554,15 554,15 554,15 554,15 554,15 554,15 554,15 554,15 554,15 554,15 554,15 554,15 554,15 554,15 554,15 554,15 554,15 554,15 554,15 554,15 554,15 554,15 554,15 555,15 555,15 555,15 555,15 555,15 555,15 555,15 555,15 555,15 555,15 555,15 555,15 555,14 555,14 555,14 555,14 555,14 555,14 555,14 555,14 555,14 555,14 555,14 555,14 555,14 555,14 555,14 555,14 555,14 555,14 555,14 555,14 555,14 555,14 555,14 555,14 555,14 555,14 555,14 555,14 555,14 555,14 555,14 555,14 555,14 555,14 555,14 555,14 555,14 555,14 555,14 555,14 555,14 556,14 556,14 556,14 556,14 556,14 556,14 556,14 556,14 556,14 556,14 556,14 556,14 556,14 556,14 556,14 556,14 556,14 556,14 556,14 556,14 556,14 556,14 556,14 556,14 556,14 556,14 556,14 556,14 556,14 556,14 556,14 556,14 556,14 556,14 556,14 556,14 556,14 556,14 556,14 556,14 556,14 556,14 556,14 556,14 556,14 556,14 556,14 556,14 556,14 556,14 556,14 556,14 556,14 556,14 557,14 557,14 557,14 557,14 557,14 557,14 557,14 557,14 557,14 557,14 557,14 557,14 557,14 557,14 557,14 557,14 557,14 557,14 557,14 557,14 557,14 557,14 557,14 557,14 557,14 557,14 557,14 557,14 557,14 557,14 557,14 557,14 557,14 557,14 557,14 557,14 557,14 557,14 557,14 557,14 557,14 557,14 557,14 557,14 557,14 557,14 557,14 557,14 557,14 557,14 557,14 557,14 557,14 557,14 557,14 558,14 558,14 558,14 558,14 558,14 558,14 558,14 558,14 558,14 558,14 558,14 558,14 558,14 558,14 558,14 558,14 558,14 558,14 558,14 558,14 558,14 558,14 558,14 558,14 558,14 558,14 558,14 558,14 558,14 558,14 558,14 558,14 558,14 558,14 558,14 558,14 558,14 558,14 558,14 558,14 558,14 558,14 558,14 558,14 558,14 558,14 558,14 558,14 558,14 558,14 558,14 558,14 558,14 558,14 558,14 558,14 558,14 559,14 559,14 559,14 559,14 559,14 559,14 559,14 559,14 559,14 559,14 559,14 559,14 559,14 559,14 559,14 559,14 559,14 559,14 559,13 559,13 559,13 559,13 559,13 559,13 559,13 559,13 559,13 559,13 559,13 559,13 559,13 559,13 559,13 559,13 559,13 559,13 559,13 559,13 559,13 559,13 559,13 559,13 559,13 559,13 559,13 559,13 559,13 559,13 559,13 559,13 559,13 559,13 559,13 559,13 559,13 559,13 559,13 560,13 560,13 560,13 560,13 560,13 560,13 560,13 560,13 560,13 560,13 560,13 560,13 560,13 560,13 560,13 560,13 560,13 560,13 560,13 560,13 560,13 560,13 560,13 560,13 560,13 560,13 560,13 560,13 560,13 560,13 560,13 560,13 560,13 560,13 560,13 560,13 560,13 560,13 560,13 560,13 560,13 560,13 560,13 560,13 560,13 560,13 560,13 560,13 560,13 560,13 560,13 560,13 560,13 560,13 560,13 560,13 560,13 560,13 560,13 561,13 561,13 561,13 561,13 561,13 561,13 561,13 561,13 561,13 561,13 561,13 561,13 561,13 561,13 561,13 561,13 561,13 561,13 561,13 561,13 561,13 561,13 561,13 561,13 561,13 561,13 561,13 561,13 561,13 561,13 561,13 561,13 561,13 561,13 561,13 561,13 561,13 561,13 561,13 561,13 561,13 561,13 561,13 561,13 561,13 561,13 561,13 561,13 561,13 561,13 561,13 561,13 561,13 561,13 561,13 561,13 561,13 561,13 561,13 561,13 562,13 562,13 562,13 562,13 562,13 562,13 562,13 562,13 562,13 562,13 562,13 562,13 562,13 562,13 562,13 562,13 562,13 562,13 562,13 562,13 562,13 562,13 562,13 562,13 562,13 562,13 562,13 562,13 562,13 562,13 562,13 562,13 562,13 562,13 562,13 562,13 562,13 562,13 562,13 562,13 562,13 562,13 562,13 562,13 562,13 562,13 562,13 562,13 562,13 562,13 562,13 562,13 562,13 562,13 562,13 562,13 562,13 562,13 562,13 562,13 562,13 562,13 563,13 563,13 563,13 563,13 563,13 563,13 563,13 563,13 563,13 563,13 563,13 563,13 563,13 563,13 563,13 563,13 563,13 563,13 563,13 563,13 563,13 563,13 563,13 563,13 563,13 563,13 563,13 563,13 563,13 563,13 563,13 563,13 563,13 563,13 563,13 563,13 563,13 563,13 563,13 563,13 563,13 563,13 563,13 563,13 563,13 563,13 563,13 563,13 563,13 563,13 563,13 563,13 563,12 563,12 563,12 563,12 563,12 563,12 563,12 563,12 563,12 563,12 563,12 564,12 564,12 564,12 564,12 564,12 564,12 564,12 564,12 564,12 564,12 564,12 564,12 564,12 564,12 564,12 564,12 564,12 564,12 564,12 564,12 564,12 564,12 564,12 564,12 564,12 564,12 564,12 564,12 564,12 564,12 564,12 564,12 564,12 564,12 564,12 564,12 564,12 564,12 564,12 564,12 564,12 564,12 564,12 564,12 564,12 564,12 564,12 564,12 564,12 564,12 564,12 564,12 564,12 564,12 564,12 564,12 564,12 564,12 564,12 564,12 564,12 564,12 564,12 564,12 565,12 565,12 565,12 565,12 565,12 565,12 565,12 565,12 565,12 565,12 565,12 565,12 565,12 565,12 565,12 565,12 565,12 565,12 565,12 565,12 565,12 565,12 565,12 565,12 565,12 565,12 565,12 565,12 565,12 565,12 565,12 565,12 565,12 565,12 565,12 565,12 565,12 565,12 565,12 565,12 565,12 565,12 565,12 565,12 565,12 565,12 565,12 565,12 565,12 565,12 565,12 565,12 565,12 565,12 565,12 565,12 565,12 565,12 565,12 565,12 565,12 565,12 565,12 565,12 565,12 565,12 566,12 566,12 566,12 566,12 566,12 566,12 566,12 566,12 566,12 566,12 566,12 566,12 566,12 566,12 566,12 566,12 566,12 566,12 566,12 566,12 566,12 566,12 566,12 566,12 566,12 566,12 566,12 566,12 566,12 566,12 566,12 566,12 566,12 566,12 566,12 566,12 566,12 566,12 566,12 566,12 566,12 566,12 566,12 566,12 566,12 566,12 566,12 566,12 566,12 566,12 566,12 566,12 566,12 566,12 566,12 566,12 566,12 566,12 566,12 566,12 566,12 566,12 566,12 566,12 566,12 566,12 566,12 566,12 567,12 567,12 567,12 567,12 567,12 567,12 567,12 567,12 567,12 567,12 567,12 567,12 567,12 567,12 567,12 567,12 567,12 567,12 567,12 567,12 567,12 567,12 567,12 567,12 567,12 567,12 567,12 567,12 567,12 567,12 567,12 567,12 567,12 567,12 567,12 567,12 567,12 567,12 567,12 567,12 567,12 567,12 567,12 567,12 567,12 567,12 567,12 567,12 567,12 567,12 567,12 567,12 567,12 567,12 567,12 567,12 567,12 567,12 567,12 567,12 567,12 567,12 567,12 567,12 567,12 567,12 567,12 567,12 568,12 568,12 568,12 568,12 568,12 568,12 568,12 568,12 568,12 568,12 568,12 568,12 568,12 568,12 568,12 568,12 568,12 568,12 568,12 568,12 568,12 568,12 568,12 568,12 568,12 568,12 568,12 568,12 568,12 568,12 568,12 568,12 568,12 568,12 568,12 568,12 568,12 568,12 568,12 568,12 568,12 568,12 568,12 568,12 568,12 568,12 568,12 568,12 568,12 568,12 568,12 568,12 568,12 568,12 568,12 568,12 568,12 568,12 568,11 568,11 568,11 568,11 568,11 568,11 568,11 568,11 568,11 568,11 568,11 568,11 568,11 569,11 569,11 569,11 569,11 569,11 569,11 569,11 569,11 569,11 569,11 569,11 569,11 569,11 569,11 569,11 569,11 569,11 569,11 569,11 569,11 569,11 569,11 569,11 569,11 569,11 569,11 569,11 569,11 569,11 569,11 569,11 569,11 569,11 569,11 569,11 569,11 569,11 569,11 569,11 569,11 569,11 569,11 569,11 569,11 569,11 569,11 569,11 569,11 569,11 569,11 569,11 569,11 569,11 569,11 569,11 569,11 569,11 569,11 569,11 569,11 569,11 569,11 569,11 569,11 569,11 569,11 569,11 569,11 569,11 569,11 569,11 569,11 570,11 570,11 570,11 570,11 570,11 570,11 570,11 570,11 570,11 570,11 570,11 570,11 570,11 570,11 570,11 570,11 570,11 570,11 570,11 570,11 570,11 570,11 570,11 570,11 570,11 570,11 570,11 570,11 570,11 570,11 570,11 570,11 570,11 570,11 570,11 570,11 570,11 570,11 570,11 570,11 570,11 570,11 570,11 570,11 570,11 570,11 570,11 570,11 570,11 570,11 570,11 570,11 570,11 570,11 570,11 570,11 570,11 570,11 570,11 570,11 570,11 570,11 570,11 570,11 570,11 570,11 570,11 570,11 570,11 570,11 570,11 570,11 570,11 571,11 571,11 571,11 571,11 571,11 571,11 571,11 571,11 571,11 571,11 571,11 571,11 571,11 571,11 571,11 571,11 571,11 571,11 571,11 571,11 571,11 571,11 571,11 571,11 571,11 571,11 571,11 571,11 571,11 571,11 571,11 571,11 571,11 571,11 571,11 571,11 571,11 571,11 571,11 571,11 571,11 571,11 571,11 571,11 571,11 571,11 571,11 571,11 571,11 571,11 571,11 571,11 571,11 571,11 571,11 571,11 571,11 571,11 571,11 571,11 571,11 571,11 571,11 571,11 571,11 571,11 571,11 571,11 571,11 571,11 571,11 571,11 571,11 571,11 571,11 571,11 572,11 572,11 572,11 572,11 572,11 572,11 572,11 572,11 572,11 572,11 572,11 572,11 572,11 572,11 572,11 572,11 572,11 572,11 572,11 572,11 572,11 572,11 572,11 572,11 572,11 572,11 572,11 572,11 572,11 572,11 572,11 572,11 572,11 572,11 572,11 572,11 572,11 572,11 572,11 572,11 572,11 572,11 572,11 572,11 572,11 572,11 572,11 572,11 572,11 572,11 572,11 572,11 572,11 572,11 572,11 572,11 572,11 572,11 572,11 572,11 572,11 572,11 572,11 572,11 572,11 572,11 572,11 572,11 572,11 572,11 572,11 572,11 572,11 572,11 572,11 572,11 572,11 573,11 573,11 573,11 573,11 573,11 573,11 573,11 573,11 573,11 573,11 573,11 573,11 573,11 573,11 573,11 573,11 573,11 573,11 573,11 573,11 573,11 573,11 573,11 573,11 573,11 573,11 573,11 573,11 573,11 573,11 573,11 573,11 573,11 573,11 573,11 573,11 573,11 573,11 573,11 573,11 573,11 573,11 573,11 573,11 573,11 573,11 573,11 573,11 573,11 573,11 573,11 573,11 573,11 573,11 573,11 573,11 573,11 573,11 573,11 573,11 573,11 573,11 573,11 573,11 573,11 573,11 573,11 573,11 573,11 573,11 573,11 573,11 573,11 573,11 573,11 573,11 573,11 573,11 574,11 574,11 574,11 574,11 574,11 574,11 574,11 574,11 574,11 574,11 574,11 574,11 574,11 574,11 574,11 574,11 574,11 574,11 574,11 574,11 574,11 574,11 574,11 574,11 574,11 574,11 574,11 574,11 574,11 574,11 574,11 574,11 574,11 574,11 574,11 574,11 574,10 574,10 574,10 574,10 574,10 574,10 574,10 574,10 574,10 574,10 574,10 574,10 574,10 574,10 574,10 574,10 574,10 574,10 574,10 574,10 574,10 574,10 574,10 574,10 574,10 574,10 574,10 574,10 574,10 574,10 574,10 574,10 574,10 574,10 574,10 574,10 574,10 574,10 574,10 574,10 574,10 574,10 574,10 574,10 574,10 575,10 575,10 575,10 575,10 575,10 575,10 575,10 575,10 575,10 575,10 575,10 575,10 575,10 575,10 575,10 575,10 575,10 575,10 575,10 575,10 575,10 575,10 575,10 575,10 575,10 575,10 575,10 575,10 575,10 575,10 575,10 575,10 575,10 575,10 575,10 575,10 575,10 575,10 575,10 575,10 575,10 575,10 575,10 575,10 575,10 575,10 575,10 575,10 575,10 575,10 575,10 575,10 575,10 575,10 575,10 575,10 575,10 575,10 575,10 575,10 575,10 575,10 575,10 575,10 575,10 575,10 575,10 575,10 575,10 575,10 575,10 575,10 575,10 575,10 575,10 575,10 575,10 575,10 575,10 575,10 575,10 575,10 576,10 576,10 576,10 576,10 576,10 576,10 576,10 576,10 576,10 576,10 576,10 576,10 576,10 576,10 576,10 576,10 576,10 576,10 576,10 576,10 576,10 576,10 576,10 576,10 576,10 576,10 576,10 576,10 576,10 576,10 576,10 576,10 576,10 576,10 576,10 576,10 576,10 576,10 576,10 576,10 576,10 576,10 576,10 576,10 576,10 576,10 576,10 576,10 576,10 576,10 576,10 576,10 576,10 576,10 576,10 576,10 576,10 576,10 576,10 576,10 576,10 576,10 576,10 576,10 576,10 576,10 576,10 576,10 576,10 576,10 576,10 576,10 576,10 576,10 576,10 576,10 576,10 576,10 576,10 576,10 576,10 576,10 576,10 576,10 577,10 577,10 577,10 577,10 577,10 577,10 577,10 577,10 577,10 577,10 577,10 577,10 577,10 577,10 577,10 577,10 577,10 577,10 577,10 577,10 577,10 577,10 577,10 577,10 577,10 577,10 577,10 577,10 577,10 577,10 577,10 577,10 577,10 577,10 577,10 577,10 577,10 577,10 577,10 577,10 577,10 577,10 577,10 577,10 577,10 577,10 577,10 577,10 577,10 577,10 577,10 577,10 577,10 577,10 577,10 577,10 577,10 577,10 577,10 577,10 577,10 577,10 577,10 577,10 577,10 577,10 577,10 577,10 577,10 577,10 577,10 577,10 577,10 577,10 577,10 577,10 577,10 577,10 577,10 577,10 577,10 577,10 577,10 577,10 577,10 577,10 578,10 578,10 578,10 578,10 578,10 578,10 578,10 578,10 578,10 578,10 578,10 578,10 578,10 578,10 578,10 578,10 578,10 578,10 578,10 578,10 578,10 578,10 578,10 578,10 578,10 578,10 578,10 578,10 578,10 578,10 578,10 578,10 578,10 578,10 578,10 578,10 578,10 578,10 578,10 578,10 578,10 578,10 578,10 578,10 578,10 578,10 578,10 578,10 578,10 578,10 578,10 578,10 578,10 578,10 578,10 578,10 578,10 578,10 578,10 578,10 578,10 578,10 578,10 578,10 578,10 578,10 578,10 578,10 578,10 578,10 578,10 578,10 578,10 578,10 578,10 578,10 578,10 578,10 578,10 578,10 578,10 578,10 578,10 578,10 578,10 578,10 578,10 578,10 579,10 579,10 579,10 579,10 579,10 579,10 579,10 579,10 579,10 579,10 579,10 579,10 579,10 579,10 579,10 579,10 579,10 579,10 579,10 579,10 579,10 579,10 579,10 579,10 579,10 579,10 579,10 579,10 579,10 579,10 579,10 579,10 579,10 579,10 579,10 579,10 579,10 579,10 579,10 579,10 579,10 579,10 579,10 579,10 579,10 579,10 579,10 579,10 579,10 579,10 579,10 579,10 579,10 579,10 579,10 579,10 579,10 579,10 579,10 579,10 579,10 579,10 579,10 579,10 579,10 579,10 579,10 579,10 579,10 579,10 579,10 579,10 579,10 579,10 579,10 579,10 579,10 579,10 579,10 579,10 579,10 579,10 579,10 579,10 579,10 579,10 579,10 579,10 579,10 579,10 580,10 580,10 580,10 580,10 580,10 580,10 580,10 580,10 580,10 580,10 580,10 580,10 580,10 580,10 580,10 580,10 580,10 580,10 580,10 580,10 580,10 580,10 580,10 580,10 580,10 580,10 580,10 580,10 580,10 580,10 580,10 580,10 580,10 580,10 580,10 580,10 580,10 580,10 580,10 580,10 580,10 580,10 580,10 580,10 580,10 580,10 580,10 580,10 580,10 580,10 580,10 580,10 580,10 580,10 580,10 580,10 580,10 580,10 580,10 580,10 580,10 580,10 580,10 580,10 580,10 580,10 580,10 580,10 580,10 580,10 580,10 580,10 580,10 580,10 580,10 580,10 580,10 580,10 580,10 580,10 580,10 580,10 580,10 580,10 580,10 580,10 580,10 580,10 580,10 580,10 580,10 581,10 581,10 581,10 581,10 581,10 581,10 581,10 581,10 581,10 581,10 581,10 581,10 581,10 581,10 581,10 581,10 581,10 581,10 581,10 581,10 581,10 581,10 581,10 581,10 581,10 581,10 581,10 581,10 581,10 581,10 581,10 581,10 581,10 581,10 581,10 581,10 581,10 581,10 581,10 581,10 581,10 581,10 581,10 581,10 581,10 581,10 581,10 581,10 581,10 581,10 581,10 581,10 581,10 581,10 581,10 581,10 581,10 581,10 581,10 581,10 581,10 581,10 581,10 581,10 581,10 581,10 581,10 581,10 581,10 581,10 581,10 581,10 581,10 581,10 581,10 581,10 581,10 581,10 581,10 581,10 581,10 581,10 581,10 581,10 581,10 581,10 581,10 581,10 581,10 581,10 581,10 581,10 581,10 581,10 582,10 582,10 582,10 582,10 582,10 582,10 582,10 582,10 582,10 582,10 582,10 582,10 582,10 582,10 582,10 582,10 582,10 582,10 582,10 582,10 582,10 582,10 582,10 582,10 582,10 582,10 582,10 582,10 582,10 582,10 582,10 582,10 582,10 582,10 582,10 582,10 582,10 582,10 582,10 582,10 582,10 582,10 582,10 582,10 582,10 582,10 582,10 582,10 582,10 582,10 582,10 582,10 582,10 582,10 582,10 582,10 582,10 582,10 582,10 582,10 582,10 582,10 582,10 582,10 582,10 582,10 582,10 582,10 582,10 582,10 582,10 582,10 582,10 582,10 582,10 582,10 582,10 582,10 582,10 582,10 582,10 582,10 582,10 582,10 582,10 582,10 582,10 582,10 582,10 582,10 582,10 582,10 582,10 582,10 582,10 582,10 583,10 583,10 583,10 583,10 583,10 583,10 583,10 583,10 583,10 583,10 583,10 583,10 583,10 583,10 583,10 583,10 583,10 583,10 583,10 583,10 583,10 583,10 583,10 583,10 583,10 583,10 583,10 583,10 583,10 583,10 583,10 583,10 583,10 583,10 583,10 583,10 583,10 583,10 583,10 583,10 583,10 583,10 583,10 583,10 583,10 583,10 583,10 583,10 583,10 583,10 583,10 583,10 583,10 583,10 583,10 583,10 583,10 583,10 583,10 583,10 583,10 583,10 583,10 583,10 583,10 583,10 583,10 583,10 583,10 583,10 583,10 583,10 583,10 583,10 583,10 583,10 583,10 583,10 583,10 583,10 583,10 583,10 583,10 583,10 583,10 583,10 583,10 583,10 583,10 583,10 583,10 583,10 583,10 583,10 583,10 583,10 583,10 583,10 584,10 584,10 584,10 584,10 584,10 584,10 584,10 584,10 584,10 584,10 584,10 584,10 584,10 584,10 584,10 584,10 584,10 584,10 584,10 584,10 584,10 584,10 584,10 584,10 584,10 584,10 584,10 584,10 584,10 584,10 584,10 584,10 584,10 584,10 584,10 584,10 584,10 584,10 584,10 584,10 584,10 584,10 584,10 584,10 584,10 584,10 584,10 584,10 584,10 584,10 584,10 584,10 584,10 584,10 584,10 584,10 584,10 584,10 584,10 584,10 584,10 584,10 584,10 584,10 584,10 584,10 584,10 584,10 584,10 584,10 584,10 584,10 584,10 584,10 584,10 584,10 584,10 584,10 584,10 584,10 584,10 584,10 584,10 584,10 584,10 584,10 584,10 584,10 584,10 584,10 584,10 584,10 584,10 584,10 584,10 584,10 584,10 584,10 584,10 584,10 584,10 585,10 585,10 585,10 585,10 585,10 585,10 585,10 585,10 585,10 585,10 585,10 585,10 585,10 585,10 585,10 585,10 585,10 585,10 585,10 585,10 585,10 585,10 585,10 585,10 585,10 585,10 585,10 585,10 585,10 585,10 585,10 585,10 585,10 585,10 585,10 585,10 585,10 585,10 585,10 585,10 585,10 585,10 585,10 585,10 585,10 585,10 585,10 585,10 585,10 585,10 585,10 585,10 585,10 585,10 585,10 585,10 585,10 585,10 585,10 585,10 585,10 585,10 585,10 585,10 585,10 585,10 585,10 585,10 585,10 585,10 585,10 585,10 585,10 585,10 585,10 585,10 585,10 585,10 585,10 585,10 585,10 585,10 585,10 585,10 585,10 585,10 585,10 585,10 585,10 585,10 585,10 585,10 585,10 585,10 585,10 585,10 585,10 585,10 585,10 585,10 585,10 585,10 586,10 586,10 586,10 586,10 586,10 586,10 586,10 586,10 586,10 586,10 586,10 586,10 586,10 586,10 586,10 586,10 586,10 586,10 586,10 586,10 586,10 586,10 586,10 586,10 586,10 586,10 586,10 586,10 586,10 586,10 586,10 586,10 586,10 586,10 586,10 586,10 586,10 586,10 586,10 586,10 586,10 586,10 586,10 586,10 586,10 586,10 586,10 586,10 586,10 586,10 586,10 586,10 586,10 586,10 586,10 586,10 586,10 586,10 586,10 586,10 586,10 586,10 586,10 586,10 586,10 586,10 586,10 586,10 586,10 586,10 586,10 586,10 586,10 586,10 586,10 586,10 586,10 586,10 586,10 586,10 586,10 586,10 586,10 586,10 586,10 586,10 586,10 586,10 586,10 586,10 586,10 586,10 586,10 586,10 586,10 586,10 586,10 586,10 586,10 586,10 586,10 586,10 586,10 586,10 586,10 587,10 587,10 587,10 587,10 587,10 587,10 587,10 587,10 587,10 587,10 587,10 587,10 587,10 587,10 587,10 587,10 587,10 587,10 587,10 587,10 587,10 587,10 587,10 587,10 587,10 587,10 587,10 587,10 587,10 587,10 587,10 587,10 587,10 587,10 587,10 587,10 587,10 587,10 587,10 587,10 587,10 587,10 587,10 587,10 587,10 587,10 587,10 587,10 587,10 587,10 587,10 587,10 587,10 587,10 587,10 587,10 587,10 587,10 587,10 587,10 587,10 587,10 587,10 587,10 587,10 587,10 587,10 587,10 587,10 587,10 587,10 587,10 587,10 587,10 587,10 587,10 587,10 587,10 587,10 587,10 587,10 587,10 587,10 587,10 587,10 587,10 587,10 587,10 587,10 587,10 587,10 587,10 587,10 587,10 587,10 587,10 587,10 587,10 587,10 587,10 587,10 587,10 587,10 587,10 587,10 587,10 587,10 587,10 588,10 588,10 588,10 588,10 588,10 588,10 588,10 588,10 588,10 588,10 588,10 588,10 588,10 588,10 588,10 588,10 588,10 588,10 588,10 588,10 588,10 588,10 588,10 588,10 588,10 588,10 588,10 588,10 588,10 588,10 588,10 588,10 588,10 588,10 588,10 588,10 588,10 588,10 588,10 588,10 588,10 588,10 588,10 588,10 588,10 588,10 588,10 588,10 588,10 588,10 588,10 588,10 588,10 588,10 588,10 588,10 588,10 588,10 588,10 588,10 588,10 588,10 588,10 588,10 588,10 588,10 588,10 588,10 588,10 588,10 588,10 588,10 588,10 588,10 588,10 588,10 588,10 588,10 588,10 588,10 588,10 588,10 588,10 588,10 588,10 588,10 588,10 588,10 588,10 588,10 588,10 588,10 588,10 588,10 588,10 588,10 588,10 588,10 588,10 588,10 588,10 588,10 588,10 588,10 588,10 588,10 588,10 588,10 588,10 589,10 "/>
<rect x="486" y="96" width="99" height="58" opacity="0.8" fill="#FFFFFF" stroke="none"/>
<rect x="486" y="96" width="99" height="58" opacity="1" fill="none" stroke="#000000"/>
<text x="526" y="106" dy="0.76em" text-anchor="start" font-family="Source Sans Pro - Regular" font-size="14.516129032258064" opacity="1" fill="#000000">
Linear
</text>
<text x="526" y="129" dy="0.76em" text-anchor="start" font-family="Source Sans Pro - Regular" font-size="14.516129032258064" opacity="1" fill="#000000">
ACES
</text>
<polyline fill="none" opacity="1" stroke="#000000" stroke-width="1" points="496,113 516,113 "/>
<polyline fill="none" opacity="1" stroke="#FF8C00" stroke-width="2" points="496,136 516,136 "/>
</svg>
